<svg width="490" height="141" viewBox="0 0 490 141" fill="none" xmlns="http://www.w3.org/2000/svg">
<rect width="490" height="141" fill="#F5F5F5"/>
<rect x="62" y="40" width="100" height="20" fill="#90FF8D"/>
<rect y="79" width="100" height="20" fill="#F1C7C7"/>
<path d="M24 121H77V141H24V121Z" fill="#D9D9D9"/>
<rect x="125" y="79" width="100" height="20" fill="#FFE27B"/>
<rect x="265" y="79" width="100" height="20" fill="#D9D9D9"/>
<rect x="390" y="79" width="100" height="20" fill="#D9D9D9"/>
<rect x="327" y="40" width="100" height="20" fill="#FFE27B"/>
<rect x="195" width="100" height="20" fill="#90FF8D"/>
<path d="M214.699 15.1193C214.114 15.1193 213.597 15.0156 213.148 14.8082C212.702 14.598 212.354 14.3097 212.104 13.9432C211.854 13.5739 211.73 13.1534 211.733 12.6818C211.73 12.3125 211.803 11.9716 211.95 11.6591C212.098 11.3437 212.3 11.081 212.555 10.8707C212.814 10.6577 213.102 10.5227 213.42 10.4659V10.4148C213.003 10.3068 212.67 10.0724 212.423 9.71165C212.176 9.34801 212.054 8.93466 212.057 8.47159C212.054 8.02841 212.166 7.6321 212.393 7.28267C212.621 6.93324 212.933 6.65767 213.331 6.45597C213.732 6.25426 214.188 6.15341 214.699 6.15341C215.205 6.15341 215.656 6.25426 216.054 6.45597C216.452 6.65767 216.764 6.93324 216.991 7.28267C217.222 7.6321 217.338 8.02841 217.341 8.47159C217.338 8.93466 217.212 9.34801 216.962 9.71165C216.714 10.0724 216.386 10.3068 215.977 10.4148V10.4659C216.293 10.5227 216.577 10.6577 216.83 10.8707C217.082 11.081 217.284 11.3437 217.435 11.6591C217.585 11.9716 217.662 12.3125 217.665 12.6818C217.662 13.1534 217.534 13.5739 217.281 13.9432C217.031 14.3097 216.683 14.598 216.237 14.8082C215.794 15.0156 215.281 15.1193 214.699 15.1193ZM214.699 14.1818C215.094 14.1818 215.435 14.1179 215.722 13.9901C216.009 13.8622 216.23 13.6818 216.386 13.4489C216.543 13.2159 216.622 12.9432 216.625 12.6307C216.622 12.3011 216.537 12.0099 216.369 11.7571C216.202 11.5043 215.973 11.3054 215.683 11.1605C215.396 11.0156 215.068 10.9432 214.699 10.9432C214.327 10.9432 213.994 11.0156 213.702 11.1605C213.412 11.3054 213.183 11.5043 213.016 11.7571C212.851 12.0099 212.77 12.3011 212.773 12.6307C212.77 12.9432 212.845 13.2159 212.999 13.4489C213.155 13.6818 213.378 13.8622 213.668 13.9901C213.957 14.1179 214.301 14.1818 214.699 14.1818ZM214.699 10.0398C215.011 10.0398 215.288 9.97727 215.53 9.85227C215.774 9.72727 215.966 9.55256 216.105 9.32812C216.244 9.10369 216.315 8.84091 216.318 8.53977C216.315 8.24432 216.246 7.98722 216.109 7.76847C215.973 7.54687 215.784 7.37642 215.543 7.2571C215.301 7.13494 215.02 7.07386 214.699 7.07386C214.372 7.07386 214.087 7.13494 213.842 7.2571C213.598 7.37642 213.409 7.54687 213.276 7.76847C213.142 7.98722 213.077 8.24432 213.08 8.53977C213.077 8.84091 213.143 9.10369 213.28 9.32812C213.419 9.55256 213.611 9.72727 213.855 9.85227C214.099 9.97727 214.381 10.0398 214.699 10.0398ZM222.093 15.1193C221.508 15.1193 220.991 15.0156 220.542 14.8082C220.096 14.598 219.748 14.3097 219.498 13.9432C219.248 13.5739 219.125 13.1534 219.127 12.6818C219.125 12.3125 219.197 11.9716 219.345 11.6591C219.493 11.3437 219.694 11.081 219.95 10.8707C220.208 10.6577 220.497 10.5227 220.815 10.4659V10.4148C220.397 10.3068 220.065 10.0724 219.818 9.71165C219.571 9.34801 219.449 8.93466 219.451 8.47159C219.449 8.02841 219.561 7.6321 219.788 7.28267C220.015 6.93324 220.328 6.65767 220.725 6.45597C221.126 6.25426 221.582 6.15341 222.093 6.15341C222.599 6.15341 223.051 6.25426 223.449 6.45597C223.846 6.65767 224.159 6.93324 224.386 7.28267C224.616 7.6321 224.733 8.02841 224.735 8.47159C224.733 8.93466 224.606 9.34801 224.356 9.71165C224.109 10.0724 223.781 10.3068 223.372 10.4148V10.4659C223.687 10.5227 223.971 10.6577 224.224 10.8707C224.477 11.081 224.679 11.3437 224.829 11.6591C224.98 11.9716 225.056 12.3125 225.059 12.6818C225.056 13.1534 224.929 13.5739 224.676 13.9432C224.426 14.3097 224.078 14.598 223.632 14.8082C223.189 15.0156 222.676 15.1193 222.093 15.1193ZM222.093 14.1818C222.488 14.1818 222.829 14.1179 223.116 13.9901C223.403 13.8622 223.625 13.6818 223.781 13.4489C223.937 13.2159 224.017 12.9432 224.02 12.6307C224.017 12.3011 223.931 12.0099 223.764 11.7571C223.596 11.5043 223.368 11.3054 223.078 11.1605C222.791 11.0156 222.463 10.9432 222.093 10.9432C221.721 10.9432 221.389 11.0156 221.096 11.1605C220.806 11.3054 220.578 11.5043 220.41 11.7571C220.245 12.0099 220.164 12.3011 220.167 12.6307C220.164 12.9432 220.24 13.2159 220.393 13.4489C220.549 13.6818 220.772 13.8622 221.062 13.9901C221.352 14.1179 221.696 14.1818 222.093 14.1818ZM222.093 10.0398C222.406 10.0398 222.683 9.97727 222.924 9.85227C223.169 9.72727 223.36 9.55256 223.5 9.32812C223.639 9.10369 223.71 8.84091 223.713 8.53977C223.71 8.24432 223.64 7.98722 223.504 7.76847C223.368 7.54687 223.179 7.37642 222.937 7.2571C222.696 7.13494 222.414 7.07386 222.093 7.07386C221.767 7.07386 221.481 7.13494 221.237 7.2571C220.993 7.37642 220.804 7.54687 220.67 7.76847C220.537 7.98722 220.471 8.24432 220.474 8.53977C220.471 8.84091 220.538 9.10369 220.674 9.32812C220.814 9.55256 221.005 9.72727 221.25 9.85227C221.494 9.97727 221.775 10.0398 222.093 10.0398ZM226.965 15L230.869 7.27841V7.21023H226.369V6.27273H231.96V7.26136L228.073 15H226.965ZM236.207 15.1193C235.565 15.1193 235.018 14.9446 234.566 14.5952C234.115 14.2429 233.77 13.733 233.531 13.0653C233.292 12.3949 233.173 11.5852 233.173 10.6364C233.173 9.69318 233.292 8.88778 233.531 8.22017C233.772 7.54972 234.119 7.03835 234.571 6.68608C235.025 6.33097 235.571 6.15341 236.207 6.15341C236.843 6.15341 237.387 6.33097 237.839 6.68608C238.294 7.03835 238.64 7.54972 238.879 8.22017C239.12 8.88778 239.241 9.69318 239.241 10.6364C239.241 11.5852 239.122 12.3949 238.883 13.0653C238.645 13.733 238.299 14.2429 237.848 14.5952C237.396 14.9446 236.849 15.1193 236.207 15.1193ZM236.207 14.1818C236.843 14.1818 237.338 13.875 237.69 13.2614C238.042 12.6477 238.218 11.7727 238.218 10.6364C238.218 9.88068 238.137 9.23722 237.975 8.70597C237.816 8.17472 237.586 7.76989 237.285 7.49148C236.987 7.21307 236.627 7.07386 236.207 7.07386C235.576 7.07386 235.083 7.38494 234.728 8.0071C234.373 8.62642 234.196 9.50284 234.196 10.6364C234.196 11.392 234.275 12.0341 234.434 12.5625C234.593 13.0909 234.822 13.4929 235.12 13.7685C235.422 14.044 235.784 14.1818 236.207 14.1818ZM240.899 15L244.802 7.27841V7.21023H240.302V6.27273H245.893V7.26136L242.007 15H240.899ZM250.192 15.1193C249.834 15.1136 249.476 15.0455 249.118 14.9148C248.76 14.7841 248.433 14.5639 248.138 14.2543C247.842 13.9418 247.605 13.5199 247.426 12.9886C247.247 12.4545 247.158 11.7841 247.158 10.9773C247.158 10.2045 247.23 9.51989 247.375 8.9233C247.52 8.32386 247.73 7.8196 248.006 7.41051C248.281 6.99858 248.614 6.68608 249.003 6.47301C249.395 6.25994 249.837 6.15341 250.328 6.15341C250.817 6.15341 251.251 6.25142 251.632 6.44744C252.016 6.64062 252.328 6.91051 252.57 7.2571C252.811 7.60369 252.967 8.00284 253.038 8.45455H251.999C251.902 8.0625 251.714 7.73722 251.436 7.47869C251.158 7.22017 250.788 7.09091 250.328 7.09091C249.652 7.09091 249.119 7.38494 248.73 7.97301C248.344 8.56108 248.149 9.38636 248.146 10.4489H248.214C248.374 10.2074 248.562 10.0014 248.781 9.83097C249.003 9.65767 249.247 9.52415 249.514 9.4304C249.781 9.33665 250.064 9.28977 250.362 9.28977C250.862 9.28977 251.32 9.41477 251.734 9.66477C252.149 9.91193 252.482 10.2543 252.732 10.6918C252.982 11.1264 253.107 11.625 253.107 12.1875C253.107 12.7273 252.986 13.2216 252.744 13.6705C252.503 14.1165 252.163 14.4716 251.726 14.7358C251.291 14.9972 250.78 15.125 250.192 15.1193ZM250.192 14.1818C250.55 14.1818 250.871 14.0923 251.155 13.9134C251.442 13.7344 251.668 13.4943 251.832 13.1932C252 12.892 252.084 12.5568 252.084 12.1875C252.084 11.8267 252.003 11.4986 251.841 11.2031C251.682 10.9048 251.462 10.6676 251.18 10.4915C250.902 10.3153 250.584 10.2273 250.226 10.2273C249.956 10.2273 249.705 10.2812 249.472 10.3892C249.239 10.4943 249.034 10.6392 248.858 10.8239C248.685 11.0085 248.548 11.2202 248.449 11.4588C248.349 11.6946 248.3 11.9432 248.3 12.2045C248.3 12.5511 248.381 12.875 248.543 13.1761C248.707 13.4773 248.932 13.7202 249.216 13.9048C249.503 14.0895 249.828 14.1818 250.192 14.1818ZM254.578 13.2102V12.3409L258.413 6.27273H259.044V7.61932H258.618L255.72 12.2045V12.2727H260.885V13.2102H254.578ZM258.686 15V12.946V12.5412V6.27273H259.691V15H258.686ZM265.379 15.1193C265.021 15.1136 264.663 15.0455 264.305 14.9148C263.947 14.7841 263.621 14.5639 263.325 14.2543C263.03 13.9418 262.793 13.5199 262.614 12.9886C262.435 12.4545 262.345 11.7841 262.345 10.9773C262.345 10.2045 262.418 9.51989 262.562 8.9233C262.707 8.32386 262.918 7.8196 263.193 7.41051C263.469 6.99858 263.801 6.68608 264.19 6.47301C264.582 6.25994 265.024 6.15341 265.516 6.15341C266.004 6.15341 266.439 6.25142 266.82 6.44744C267.203 6.64062 267.516 6.91051 267.757 7.2571C267.999 7.60369 268.155 8.00284 268.226 8.45455H267.186C267.089 8.0625 266.902 7.73722 266.624 7.47869C266.345 7.22017 265.976 7.09091 265.516 7.09091C264.839 7.09091 264.307 7.38494 263.918 7.97301C263.531 8.56108 263.337 9.38636 263.334 10.4489H263.402C263.561 10.2074 263.75 10.0014 263.969 9.83097C264.19 9.65767 264.435 9.52415 264.702 9.4304C264.969 9.33665 265.251 9.28977 265.55 9.28977C266.05 9.28977 266.507 9.41477 266.922 9.66477C267.337 9.91193 267.669 10.2543 267.919 10.6918C268.169 11.1264 268.294 11.625 268.294 12.1875C268.294 12.7273 268.173 13.2216 267.932 13.6705C267.69 14.1165 267.351 14.4716 266.913 14.7358C266.479 14.9972 265.967 15.125 265.379 15.1193ZM265.379 14.1818C265.737 14.1818 266.058 14.0923 266.342 13.9134C266.629 13.7344 266.855 13.4943 267.02 13.1932C267.188 12.892 267.271 12.5568 267.271 12.1875C267.271 11.8267 267.19 11.4986 267.028 11.2031C266.869 10.9048 266.649 10.6676 266.368 10.4915C266.089 10.3153 265.771 10.2273 265.413 10.2273C265.143 10.2273 264.892 10.2812 264.659 10.3892C264.426 10.4943 264.222 10.6392 264.045 10.8239C263.872 11.0085 263.736 11.2202 263.636 11.4588C263.537 11.6946 263.487 11.9432 263.487 12.2045C263.487 12.5511 263.568 12.875 263.73 13.1761C263.895 13.4773 264.119 13.7202 264.403 13.9048C264.69 14.0895 265.016 14.1818 265.379 14.1818ZM270.31 15.0682C270.099 15.0682 269.919 14.9929 269.768 14.8423C269.618 14.6918 269.543 14.5114 269.543 14.3011C269.543 14.0909 269.618 13.9105 269.768 13.7599C269.919 13.6094 270.099 13.5341 270.31 13.5341C270.52 13.5341 270.7 13.6094 270.851 13.7599C271.001 13.9105 271.077 14.0909 271.077 14.3011C271.077 14.4403 271.041 14.5682 270.97 14.6847C270.902 14.8011 270.81 14.8949 270.693 14.9659C270.58 15.0341 270.452 15.0682 270.31 15.0682ZM273.614 15.0682C273.404 15.0682 273.224 14.9929 273.073 14.8423C272.923 14.6918 272.847 14.5114 272.847 14.3011C272.847 14.0909 272.923 13.9105 273.073 13.7599C273.224 13.6094 273.404 13.5341 273.614 13.5341C273.825 13.5341 274.005 13.6094 274.156 13.7599C274.306 13.9105 274.381 14.0909 274.381 14.3011C274.381 14.4403 274.346 14.5682 274.275 14.6847C274.207 14.8011 274.114 14.8949 273.998 14.9659C273.884 15.0341 273.756 15.0682 273.614 15.0682ZM276.919 15.0682C276.709 15.0682 276.528 14.9929 276.378 14.8423C276.227 14.6918 276.152 14.5114 276.152 14.3011C276.152 14.0909 276.227 13.9105 276.378 13.7599C276.528 13.6094 276.709 13.5341 276.919 13.5341C277.129 13.5341 277.31 13.6094 277.46 13.7599C277.611 13.9105 277.686 14.0909 277.686 14.3011C277.686 14.4403 277.651 14.5682 277.58 14.6847C277.511 14.8011 277.419 14.8949 277.303 14.9659C277.189 15.0341 277.061 15.0682 276.919 15.0682Z" fill="black"/>
<path d="M79.9034 54V53.233L82.7841 50.0795C83.1222 49.7102 83.4006 49.3892 83.6193 49.1165C83.8381 48.8409 84 48.5824 84.1051 48.3409C84.2131 48.0966 84.267 47.8409 84.267 47.5739C84.267 47.267 84.1932 47.0014 84.0455 46.777C83.9006 46.5526 83.7017 46.3793 83.4489 46.2571C83.196 46.1349 82.9119 46.0739 82.5966 46.0739C82.2614 46.0739 81.9688 46.1435 81.7188 46.2827C81.4716 46.419 81.2798 46.6108 81.1435 46.858C81.0099 47.1051 80.9432 47.3949 80.9432 47.7273H79.9375C79.9375 47.2159 80.0554 46.767 80.2912 46.3807C80.527 45.9943 80.848 45.6932 81.2543 45.4773C81.6634 45.2614 82.1222 45.1534 82.6307 45.1534C83.142 45.1534 83.5952 45.2614 83.9901 45.4773C84.3849 45.6932 84.6946 45.9844 84.919 46.3509C85.1435 46.7173 85.2557 47.125 85.2557 47.5739C85.2557 47.8949 85.1974 48.2088 85.081 48.5156C84.9673 48.8196 84.7685 49.1591 84.4844 49.5341C84.2031 49.9062 83.8125 50.3608 83.3125 50.8977L81.3523 52.9943V53.0625H85.4091V54H79.9034ZM89.8963 54.1193C89.3963 54.1193 88.946 54.0199 88.5455 53.821C88.1449 53.6222 87.8239 53.3494 87.5824 53.0028C87.3409 52.6562 87.2088 52.2614 87.1861 51.8182H88.2088C88.2486 52.2131 88.4276 52.5398 88.7457 52.7983C89.0668 53.054 89.4503 53.1818 89.8963 53.1818C90.2543 53.1818 90.5724 53.098 90.8509 52.9304C91.1321 52.7628 91.3523 52.5327 91.5114 52.2401C91.6733 51.9446 91.7543 51.6108 91.7543 51.2386C91.7543 50.858 91.6705 50.5185 91.5028 50.2202C91.3381 49.919 91.1108 49.6818 90.821 49.5085C90.5313 49.3352 90.2003 49.2472 89.8281 49.2443C89.5611 49.2415 89.2869 49.2827 89.0057 49.3679C88.7244 49.4503 88.4929 49.5568 88.3111 49.6875L87.3224 49.5682L87.8509 45.2727H92.3849V46.2102H88.7372L88.4304 48.7841H88.4815C88.6605 48.642 88.8849 48.5241 89.1548 48.4304C89.4247 48.3366 89.706 48.2898 89.9986 48.2898C90.5327 48.2898 91.0085 48.4176 91.4261 48.6733C91.8466 48.9261 92.1761 49.2727 92.4148 49.7131C92.6562 50.1534 92.777 50.6562 92.777 51.2216C92.777 51.7784 92.652 52.2756 92.402 52.7131C92.1548 53.1477 91.8139 53.4915 91.3793 53.7443C90.9446 53.9943 90.4503 54.1193 89.8963 54.1193ZM97.2653 54.1193C96.68 54.1193 96.163 54.0156 95.7141 53.8082C95.2681 53.598 94.9201 53.3097 94.6701 52.9432C94.4201 52.5739 94.2965 52.1534 94.2994 51.6818C94.2965 51.3125 94.369 50.9716 94.5167 50.6591C94.6644 50.3437 94.8661 50.081 95.1218 49.8707C95.3803 49.6577 95.6687 49.5227 95.9869 49.4659V49.4148C95.5692 49.3068 95.2369 49.0724 94.9897 48.7116C94.7425 48.348 94.6204 47.9347 94.6232 47.4716C94.6204 47.0284 94.7326 46.6321 94.9599 46.2827C95.1871 45.9332 95.4996 45.6577 95.8974 45.456C96.2979 45.2543 96.7539 45.1534 97.2653 45.1534C97.771 45.1534 98.2227 45.2543 98.6204 45.456C99.0181 45.6577 99.3306 45.9332 99.5579 46.2827C99.788 46.6321 99.9045 47.0284 99.9073 47.4716C99.9045 47.9347 99.7781 48.348 99.5281 48.7116C99.2809 49.0724 98.9528 49.3068 98.5437 49.4148V49.4659C98.859 49.5227 99.1431 49.6577 99.396 49.8707C99.6488 50.081 99.8505 50.3437 100.001 50.6591C100.152 50.9716 100.228 51.3125 100.231 51.6818C100.228 52.1534 100.1 52.5739 99.8477 52.9432C99.5977 53.3097 99.2496 53.598 98.8036 53.8082C98.3604 54.0156 97.8477 54.1193 97.2653 54.1193ZM97.2653 53.1818C97.6602 53.1818 98.0011 53.1179 98.288 52.9901C98.5749 52.8622 98.7965 52.6818 98.9528 52.4489C99.109 52.2159 99.1886 51.9432 99.1914 51.6307C99.1886 51.3011 99.1033 51.0099 98.9357 50.7571C98.7681 50.5043 98.5394 50.3054 98.2496 50.1605C97.9627 50.0156 97.6346 49.9432 97.2653 49.9432C96.8931 49.9432 96.5607 50.0156 96.2681 50.1605C95.9783 50.3054 95.7496 50.5043 95.582 50.7571C95.4173 51.0099 95.3363 51.3011 95.3391 51.6307C95.3363 51.9432 95.4116 52.2159 95.565 52.4489C95.7212 52.6818 95.9442 52.8622 96.234 52.9901C96.5238 53.1179 96.8675 53.1818 97.2653 53.1818ZM97.2653 49.0398C97.5778 49.0398 97.8548 48.9773 98.0962 48.8523C98.3406 48.7273 98.5323 48.5526 98.6715 48.3281C98.8107 48.1037 98.8817 47.8409 98.8846 47.5398C98.8817 47.2443 98.8121 46.9872 98.6758 46.7685C98.5394 46.5469 98.3505 46.3764 98.109 46.2571C97.8675 46.1349 97.5863 46.0739 97.2653 46.0739C96.9386 46.0739 96.6531 46.1349 96.4087 46.2571C96.1644 46.3764 95.9755 46.5469 95.842 46.7685C95.7085 46.9872 95.6431 47.2443 95.646 47.5398C95.6431 47.8409 95.7099 48.1037 95.8462 48.3281C95.9854 48.5526 96.1772 48.7273 96.4215 48.8523C96.6658 48.9773 96.9471 49.0398 97.2653 49.0398ZM102.137 54L106.04 46.2784V46.2102H101.54V45.2727H107.131V46.2614L103.245 54H102.137ZM111.788 45.2727V54H110.731V46.3807H110.68L108.549 47.7955V46.7216L110.731 45.2727H111.788ZM114.093 52.2102V51.3409L117.929 45.2727H118.559V46.6193H118.133L115.235 51.2045V51.2727H120.4V52.2102H114.093ZM118.201 54V51.946V51.5412V45.2727H119.207V54H118.201ZM124.844 54.1193C124.202 54.1193 123.655 53.9446 123.203 53.5952C122.751 53.2429 122.406 52.733 122.168 52.0653C121.929 51.3949 121.81 50.5852 121.81 49.6364C121.81 48.6932 121.929 47.8878 122.168 47.2202C122.409 46.5497 122.756 46.0384 123.207 45.6861C123.662 45.331 124.207 45.1534 124.844 45.1534C125.48 45.1534 126.024 45.331 126.476 45.6861C126.93 46.0384 127.277 46.5497 127.516 47.2202C127.757 47.8878 127.878 48.6932 127.878 49.6364C127.878 50.5852 127.759 51.3949 127.52 52.0653C127.281 52.733 126.936 53.2429 126.484 53.5952C126.033 53.9446 125.486 54.1193 124.844 54.1193ZM124.844 53.1818C125.48 53.1818 125.974 52.875 126.327 52.2614C126.679 51.6477 126.855 50.7727 126.855 49.6364C126.855 48.8807 126.774 48.2372 126.612 47.706C126.453 47.1747 126.223 46.7699 125.922 46.4915C125.624 46.2131 125.264 46.0739 124.844 46.0739C124.213 46.0739 123.72 46.3849 123.365 47.0071C123.01 47.6264 122.832 48.5028 122.832 49.6364C122.832 50.392 122.912 51.0341 123.071 51.5625C123.23 52.0909 123.459 52.4929 123.757 52.7685C124.058 53.044 124.42 53.1818 124.844 53.1818ZM132.446 54.1193C131.884 54.1193 131.382 54.0227 130.942 53.8295C130.504 53.6364 130.156 53.3679 129.898 53.0241C129.642 52.6776 129.503 52.2756 129.48 51.8182H130.554C130.577 52.0994 130.673 52.3423 130.844 52.5469C131.014 52.7486 131.237 52.9048 131.513 53.0156C131.788 53.1264 132.094 53.1818 132.429 53.1818C132.804 53.1818 133.136 53.1165 133.426 52.9858C133.716 52.8551 133.943 52.6733 134.108 52.4403C134.273 52.2074 134.355 51.9375 134.355 51.6307C134.355 51.3097 134.276 51.027 134.116 50.7827C133.957 50.5355 133.724 50.3423 133.418 50.2031C133.111 50.0639 132.736 49.9943 132.293 49.9943H131.594V49.0568H132.293C132.639 49.0568 132.943 48.9943 133.205 48.8693C133.469 48.7443 133.675 48.5682 133.822 48.3409C133.973 48.1136 134.048 47.8466 134.048 47.5398C134.048 47.2443 133.983 46.9872 133.852 46.7685C133.722 46.5497 133.537 46.3793 133.298 46.2571C133.063 46.1349 132.784 46.0739 132.463 46.0739C132.162 46.0739 131.878 46.1293 131.611 46.2401C131.347 46.348 131.131 46.5057 130.963 46.7131C130.795 46.9176 130.705 47.1648 130.69 47.4545H129.668C129.685 46.9972 129.822 46.5966 130.081 46.2528C130.339 45.9062 130.678 45.6364 131.095 45.4432C131.516 45.25 131.977 45.1534 132.48 45.1534C133.02 45.1534 133.483 45.2628 133.869 45.4815C134.256 45.6974 134.553 45.983 134.76 46.3381C134.967 46.6932 135.071 47.0767 135.071 47.4886C135.071 47.9801 134.942 48.3991 134.683 48.7457C134.428 49.0923 134.08 49.3324 133.639 49.4659V49.5341C134.19 49.625 134.621 49.8594 134.93 50.2372C135.24 50.6122 135.395 51.0767 135.395 51.6307C135.395 52.1051 135.266 52.5312 135.007 52.9091C134.751 53.2841 134.402 53.5795 133.959 53.7955C133.516 54.0114 133.011 54.1193 132.446 54.1193ZM137.618 54.0682C137.408 54.0682 137.228 53.9929 137.077 53.8423C136.926 53.6918 136.851 53.5114 136.851 53.3011C136.851 53.0909 136.926 52.9105 137.077 52.7599C137.228 52.6094 137.408 52.5341 137.618 52.5341C137.828 52.5341 138.009 52.6094 138.159 52.7599C138.31 52.9105 138.385 53.0909 138.385 53.3011C138.385 53.4403 138.35 53.5682 138.279 53.6847C138.211 53.8011 138.118 53.8949 138.002 53.9659C137.888 54.0341 137.76 54.0682 137.618 54.0682ZM140.923 54.0682C140.713 54.0682 140.532 53.9929 140.382 53.8423C140.231 53.6918 140.156 53.5114 140.156 53.3011C140.156 53.0909 140.231 52.9105 140.382 52.7599C140.532 52.6094 140.713 52.5341 140.923 52.5341C141.133 52.5341 141.314 52.6094 141.464 52.7599C141.615 52.9105 141.69 53.0909 141.69 53.3011C141.69 53.4403 141.654 53.5682 141.583 53.6847C141.515 53.8011 141.423 53.8949 141.306 53.9659C141.193 54.0341 141.065 54.0682 140.923 54.0682ZM144.228 54.0682C144.017 54.0682 143.837 53.9929 143.686 53.8423C143.536 53.6918 143.461 53.5114 143.461 53.3011C143.461 53.0909 143.536 52.9105 143.686 52.7599C143.837 52.6094 144.017 52.5341 144.228 52.5341C144.438 52.5341 144.618 52.6094 144.769 52.7599C144.919 52.9105 144.995 53.0909 144.995 53.3011C144.995 53.4403 144.959 53.5682 144.888 53.6847C144.82 53.8011 144.728 53.8949 144.611 53.9659C144.498 54.0341 144.37 54.0682 144.228 54.0682Z" fill="black"/>
<path d="M346.972 46.2727V55H345.915V47.3807H345.864L343.733 48.7955V47.7216L345.915 46.2727H346.972ZM352.26 46.1534C352.618 46.1562 352.976 46.2244 353.334 46.358C353.692 46.4915 354.018 46.7131 354.314 47.0227C354.609 47.3295 354.847 47.7486 355.026 48.2798C355.205 48.8111 355.294 49.4773 355.294 50.2784C355.294 51.054 355.22 51.7429 355.072 52.3452C354.928 52.9446 354.717 53.4503 354.442 53.8622C354.169 54.2741 353.837 54.5866 353.445 54.7997C353.055 55.0128 352.615 55.1193 352.124 55.1193C351.635 55.1193 351.199 55.0227 350.815 54.8295C350.435 54.6335 350.122 54.3622 349.878 54.0156C349.636 53.6662 349.482 53.2614 349.413 52.8011H350.453C350.547 53.2017 350.733 53.5327 351.011 53.794C351.293 54.0526 351.663 54.1818 352.124 54.1818C352.797 54.1818 353.328 53.8878 353.717 53.2997C354.109 52.7116 354.305 51.8807 354.305 50.8068H354.237C354.078 51.0455 353.889 51.2514 353.67 51.4247C353.452 51.598 353.209 51.7315 352.942 51.8253C352.675 51.919 352.391 51.9659 352.089 51.9659C351.589 51.9659 351.131 51.8423 350.713 51.5952C350.298 51.3452 349.966 51.0028 349.716 50.5682C349.469 50.1307 349.345 49.6307 349.345 49.0682C349.345 48.5341 349.464 48.0455 349.703 47.6023C349.945 47.1562 350.283 46.8011 350.717 46.5369C351.155 46.2727 351.669 46.1449 352.26 46.1534ZM352.26 47.0909C351.902 47.0909 351.58 47.1804 351.293 47.3594C351.009 47.5355 350.783 47.7741 350.615 48.0753C350.45 48.3736 350.368 48.7045 350.368 49.0682C350.368 49.4318 350.447 49.7628 350.607 50.0611C350.768 50.3565 350.989 50.5923 351.267 50.7685C351.548 50.9418 351.868 51.0284 352.226 51.0284C352.496 51.0284 352.747 50.9759 352.98 50.8707C353.213 50.7628 353.416 50.6165 353.589 50.4318C353.766 50.2443 353.903 50.0327 354.003 49.7969C354.102 49.5582 354.152 49.3097 354.152 49.0511C354.152 48.7102 354.07 48.3906 353.905 48.0923C353.743 47.794 353.518 47.5526 353.232 47.3679C352.947 47.1832 352.624 47.0909 352.26 47.0909ZM359.765 55.1193C359.18 55.1193 358.663 55.0156 358.214 54.8082C357.768 54.598 357.42 54.3097 357.17 53.9432C356.92 53.5739 356.797 53.1534 356.799 52.6818C356.797 52.3125 356.869 51.9716 357.017 51.6591C357.164 51.3437 357.366 51.081 357.622 50.8707C357.88 50.6577 358.169 50.5227 358.487 50.4659V50.4148C358.069 50.3068 357.737 50.0724 357.49 49.7116C357.243 49.348 357.12 48.9347 357.123 48.4716C357.12 48.0284 357.233 47.6321 357.46 47.2827C357.687 46.9332 358 46.6577 358.397 46.456C358.798 46.2543 359.254 46.1534 359.765 46.1534C360.271 46.1534 360.723 46.2543 361.12 46.456C361.518 46.6577 361.831 46.9332 362.058 47.2827C362.288 47.6321 362.404 48.0284 362.407 48.4716C362.404 48.9347 362.278 49.348 362.028 49.7116C361.781 50.0724 361.453 50.3068 361.044 50.4148V50.4659C361.359 50.5227 361.643 50.6577 361.896 50.8707C362.149 51.081 362.35 51.3437 362.501 51.6591C362.652 51.9716 362.728 52.3125 362.731 52.6818C362.728 53.1534 362.6 53.5739 362.348 53.9432C362.098 54.3097 361.75 54.598 361.304 54.8082C360.86 55.0156 360.348 55.1193 359.765 55.1193ZM359.765 54.1818C360.16 54.1818 360.501 54.1179 360.788 53.9901C361.075 53.8622 361.297 53.6818 361.453 53.4489C361.609 53.2159 361.689 52.9432 361.691 52.6307C361.689 52.3011 361.603 52.0099 361.436 51.7571C361.268 51.5043 361.039 51.3054 360.75 51.1605C360.463 51.0156 360.135 50.9432 359.765 50.9432C359.393 50.9432 359.061 51.0156 358.768 51.1605C358.478 51.3054 358.25 51.5043 358.082 51.7571C357.917 52.0099 357.836 52.3011 357.839 52.6307C357.836 52.9432 357.912 53.2159 358.065 53.4489C358.221 53.6818 358.444 53.8622 358.734 53.9901C359.024 54.1179 359.368 54.1818 359.765 54.1818ZM359.765 50.0398C360.078 50.0398 360.355 49.9773 360.596 49.8523C360.841 49.7273 361.032 49.5526 361.172 49.3281C361.311 49.1037 361.382 48.8409 361.385 48.5398C361.382 48.2443 361.312 47.9872 361.176 47.7685C361.039 47.5469 360.85 47.3764 360.609 47.2571C360.368 47.1349 360.086 47.0739 359.765 47.0739C359.439 47.0739 359.153 47.1349 358.909 47.2571C358.664 47.3764 358.475 47.5469 358.342 47.7685C358.208 47.9872 358.143 48.2443 358.146 48.5398C358.143 48.8409 358.21 49.1037 358.346 49.3281C358.485 49.5526 358.677 49.7273 358.922 49.8523C359.166 49.9773 359.447 50.0398 359.765 50.0398ZM367.16 55.1193C366.575 55.1193 366.058 55.0156 365.609 54.8082C365.163 54.598 364.815 54.3097 364.565 53.9432C364.315 53.5739 364.191 53.1534 364.194 52.6818C364.191 52.3125 364.263 51.9716 364.411 51.6591C364.559 51.3437 364.761 51.081 365.016 50.8707C365.275 50.6577 365.563 50.5227 365.881 50.4659V50.4148C365.464 50.3068 365.131 50.0724 364.884 49.7116C364.637 49.348 364.515 48.9347 364.518 48.4716C364.515 48.0284 364.627 47.6321 364.854 47.2827C365.082 46.9332 365.394 46.6577 365.792 46.456C366.192 46.2543 366.648 46.1534 367.16 46.1534C367.665 46.1534 368.117 46.2543 368.515 46.456C368.913 46.6577 369.225 46.9332 369.452 47.2827C369.683 47.6321 369.799 48.0284 369.802 48.4716C369.799 48.9347 369.673 49.348 369.423 49.7116C369.175 50.0724 368.847 50.3068 368.438 50.4148V50.4659C368.754 50.5227 369.038 50.6577 369.29 50.8707C369.543 51.081 369.745 51.3437 369.896 51.6591C370.046 51.9716 370.123 52.3125 370.126 52.6818C370.123 53.1534 369.995 53.5739 369.742 53.9432C369.492 54.3097 369.144 54.598 368.698 54.8082C368.255 55.0156 367.742 55.1193 367.16 55.1193ZM367.16 54.1818C367.555 54.1818 367.896 54.1179 368.183 53.9901C368.469 53.8622 368.691 53.6818 368.847 53.4489C369.004 53.2159 369.083 52.9432 369.086 52.6307C369.083 52.3011 368.998 52.0099 368.83 51.7571C368.663 51.5043 368.434 51.3054 368.144 51.1605C367.857 51.0156 367.529 50.9432 367.16 50.9432C366.788 50.9432 366.455 51.0156 366.163 51.1605C365.873 51.3054 365.644 51.5043 365.477 51.7571C365.312 52.0099 365.231 52.3011 365.234 52.6307C365.231 52.9432 365.306 53.2159 365.46 53.4489C365.616 53.6818 365.839 53.8622 366.129 53.9901C366.418 54.1179 366.762 54.1818 367.16 54.1818ZM367.16 50.0398C367.472 50.0398 367.749 49.9773 367.991 49.8523C368.235 49.7273 368.427 49.5526 368.566 49.3281C368.705 49.1037 368.776 48.8409 368.779 48.5398C368.776 48.2443 368.707 47.9872 368.57 47.7685C368.434 47.5469 368.245 47.3764 368.004 47.2571C367.762 47.1349 367.481 47.0739 367.16 47.0739C366.833 47.0739 366.548 47.1349 366.303 47.2571C366.059 47.3764 365.87 47.5469 365.737 47.7685C365.603 47.9872 365.538 48.2443 365.54 48.5398C365.538 48.8409 365.604 49.1037 365.741 49.3281C365.88 49.5526 366.072 49.7273 366.316 49.8523C366.56 49.9773 366.842 50.0398 367.16 50.0398ZM371.554 53.2102V52.3409L375.39 46.2727H376.02V47.6193H375.594L372.696 52.2045V52.2727H377.861V53.2102H371.554ZM375.662 55V52.946V52.5412V46.2727H376.668V55H375.662ZM382.356 55.1193C381.998 55.1136 381.64 55.0455 381.282 54.9148C380.924 54.7841 380.597 54.5639 380.302 54.2543C380.006 53.9418 379.769 53.5199 379.59 52.9886C379.411 52.4545 379.322 51.7841 379.322 50.9773C379.322 50.2045 379.394 49.5199 379.539 48.9233C379.684 48.3239 379.894 47.8196 380.17 47.4105C380.445 46.9986 380.778 46.6861 381.167 46.473C381.559 46.2599 382.001 46.1534 382.492 46.1534C382.981 46.1534 383.415 46.2514 383.796 46.4474C384.18 46.6406 384.492 46.9105 384.734 47.2571C384.975 47.6037 385.131 48.0028 385.202 48.4545H384.163C384.066 48.0625 383.879 47.7372 383.6 47.4787C383.322 47.2202 382.952 47.0909 382.492 47.0909C381.816 47.0909 381.283 47.3849 380.894 47.973C380.508 48.5611 380.313 49.3864 380.31 50.4489H380.379C380.538 50.2074 380.727 50.0014 380.945 49.831C381.167 49.6577 381.411 49.5241 381.678 49.4304C381.945 49.3366 382.228 49.2898 382.526 49.2898C383.026 49.2898 383.484 49.4148 383.898 49.6648C384.313 49.9119 384.646 50.2543 384.896 50.6918C385.146 51.1264 385.271 51.625 385.271 52.1875C385.271 52.7273 385.15 53.2216 384.908 53.6705C384.667 54.1165 384.327 54.4716 383.89 54.7358C383.455 54.9972 382.944 55.125 382.356 55.1193ZM382.356 54.1818C382.714 54.1818 383.035 54.0923 383.319 53.9134C383.606 53.7344 383.832 53.4943 383.996 53.1932C384.164 52.892 384.248 52.5568 384.248 52.1875C384.248 51.8267 384.167 51.4986 384.005 51.2031C383.846 50.9048 383.626 50.6676 383.344 50.4915C383.066 50.3153 382.748 50.2273 382.39 50.2273C382.12 50.2273 381.869 50.2812 381.636 50.3892C381.403 50.4943 381.198 50.6392 381.022 50.8239C380.849 51.0085 380.712 51.2202 380.613 51.4588C380.513 51.6946 380.464 51.9432 380.464 52.2045C380.464 52.5511 380.545 52.875 380.707 53.1761C380.871 53.4773 381.096 53.7202 381.38 53.9048C381.667 54.0895 381.992 54.1818 382.356 54.1818ZM389.844 55.1193C389.486 55.1136 389.128 55.0455 388.77 54.9148C388.412 54.7841 388.086 54.5639 387.79 54.2543C387.495 53.9418 387.257 53.5199 387.078 52.9886C386.9 52.4545 386.81 51.7841 386.81 50.9773C386.81 50.2045 386.882 49.5199 387.027 48.9233C387.172 48.3239 387.382 47.8196 387.658 47.4105C387.934 46.9986 388.266 46.6861 388.655 46.473C389.047 46.2599 389.489 46.1534 389.98 46.1534C390.469 46.1534 390.904 46.2514 391.284 46.4474C391.668 46.6406 391.98 46.9105 392.222 47.2571C392.463 47.6037 392.62 48.0028 392.691 48.4545H391.651C391.554 48.0625 391.367 47.7372 391.088 47.4787C390.81 47.2202 390.441 47.0909 389.98 47.0909C389.304 47.0909 388.772 47.3849 388.382 47.973C387.996 48.5611 387.801 49.3864 387.799 50.4489H387.867C388.026 50.2074 388.215 50.0014 388.434 49.831C388.655 49.6577 388.9 49.5241 389.167 49.4304C389.434 49.3366 389.716 49.2898 390.015 49.2898C390.515 49.2898 390.972 49.4148 391.387 49.6648C391.801 49.9119 392.134 50.2543 392.384 50.6918C392.634 51.1264 392.759 51.625 392.759 52.1875C392.759 52.7273 392.638 53.2216 392.397 53.6705C392.155 54.1165 391.816 54.4716 391.378 54.7358C390.944 54.9972 390.432 55.125 389.844 55.1193ZM389.844 54.1818C390.202 54.1818 390.523 54.0923 390.807 53.9134C391.094 53.7344 391.32 53.4943 391.485 53.1932C391.652 52.892 391.736 52.5568 391.736 52.1875C391.736 51.8267 391.655 51.4986 391.493 51.2031C391.334 50.9048 391.114 50.6676 390.833 50.4915C390.554 50.3153 390.236 50.2273 389.878 50.2273C389.608 50.2273 389.357 50.2812 389.124 50.3892C388.891 50.4943 388.686 50.6392 388.51 50.8239C388.337 51.0085 388.201 51.2202 388.101 51.4588C388.002 51.6946 387.952 51.9432 387.952 52.2045C387.952 52.5511 388.033 52.875 388.195 53.1761C388.36 53.4773 388.584 53.7202 388.868 53.9048C389.155 54.0895 389.48 54.1818 389.844 54.1818ZM397.23 55.1193C396.645 55.1193 396.128 55.0156 395.679 54.8082C395.233 54.598 394.885 54.3097 394.635 53.9432C394.385 53.5739 394.261 53.1534 394.264 52.6818C394.261 52.3125 394.334 51.9716 394.482 51.6591C394.629 51.3437 394.831 51.081 395.087 50.8707C395.345 50.6577 395.634 50.5227 395.952 50.4659V50.4148C395.534 50.3068 395.202 50.0724 394.955 49.7116C394.707 49.348 394.585 48.9347 394.588 48.4716C394.585 48.0284 394.697 47.6321 394.925 47.2827C395.152 46.9332 395.464 46.6577 395.862 46.456C396.263 46.2543 396.719 46.1534 397.23 46.1534C397.736 46.1534 398.188 46.2543 398.585 46.456C398.983 46.6577 399.295 46.9332 399.523 47.2827C399.753 47.6321 399.869 48.0284 399.872 48.4716C399.869 48.9347 399.743 49.348 399.493 49.7116C399.246 50.0724 398.918 50.3068 398.509 50.4148V50.4659C398.824 50.5227 399.108 50.6577 399.361 50.8707C399.614 51.081 399.815 51.3437 399.966 51.6591C400.116 51.9716 400.193 52.3125 400.196 52.6818C400.193 53.1534 400.065 53.5739 399.812 53.9432C399.562 54.3097 399.214 54.598 398.768 54.8082C398.325 55.0156 397.813 55.1193 397.23 55.1193ZM397.23 54.1818C397.625 54.1818 397.966 54.1179 398.253 53.9901C398.54 53.8622 398.761 53.6818 398.918 53.4489C399.074 53.2159 399.153 52.9432 399.156 52.6307C399.153 52.3011 399.068 52.0099 398.901 51.7571C398.733 51.5043 398.504 51.3054 398.214 51.1605C397.928 51.0156 397.599 50.9432 397.23 50.9432C396.858 50.9432 396.526 51.0156 396.233 51.1605C395.943 51.3054 395.714 51.5043 395.547 51.7571C395.382 52.0099 395.301 52.3011 395.304 52.6307C395.301 52.9432 395.376 53.2159 395.53 53.4489C395.686 53.6818 395.909 53.8622 396.199 53.9901C396.489 54.1179 396.832 54.1818 397.23 54.1818ZM397.23 50.0398C397.543 50.0398 397.82 49.9773 398.061 49.8523C398.305 49.7273 398.497 49.5526 398.636 49.3281C398.776 49.1037 398.847 48.8409 398.849 48.5398C398.847 48.2443 398.777 47.9872 398.641 47.7685C398.504 47.5469 398.315 47.3764 398.074 47.2571C397.832 47.1349 397.551 47.0739 397.23 47.0739C396.903 47.0739 396.618 47.1349 396.374 47.2571C396.129 47.3764 395.94 47.5469 395.807 47.7685C395.673 47.9872 395.608 48.2443 395.611 48.5398C395.608 48.8409 395.675 49.1037 395.811 49.3281C395.95 49.5526 396.142 49.7273 396.386 49.8523C396.631 49.9773 396.912 50.0398 397.23 50.0398ZM402.31 55.0682C402.099 55.0682 401.919 54.9929 401.768 54.8423C401.618 54.6918 401.543 54.5114 401.543 54.3011C401.543 54.0909 401.618 53.9105 401.768 53.7599C401.919 53.6094 402.099 53.5341 402.31 53.5341C402.52 53.5341 402.7 53.6094 402.851 53.7599C403.001 53.9105 403.077 54.0909 403.077 54.3011C403.077 54.4403 403.041 54.5682 402.97 54.6847C402.902 54.8011 402.81 54.8949 402.693 54.9659C402.58 55.0341 402.452 55.0682 402.31 55.0682ZM405.614 55.0682C405.404 55.0682 405.224 54.9929 405.073 54.8423C404.923 54.6918 404.847 54.5114 404.847 54.3011C404.847 54.0909 404.923 53.9105 405.073 53.7599C405.224 53.6094 405.404 53.5341 405.614 53.5341C405.825 53.5341 406.005 53.6094 406.156 53.7599C406.306 53.9105 406.381 54.0909 406.381 54.3011C406.381 54.4403 406.346 54.5682 406.275 54.6847C406.207 54.8011 406.114 54.8949 405.998 54.9659C405.884 55.0341 405.756 55.0682 405.614 55.0682ZM408.919 55.0682C408.709 55.0682 408.528 54.9929 408.378 54.8423C408.227 54.6918 408.152 54.5114 408.152 54.3011C408.152 54.0909 408.227 53.9105 408.378 53.7599C408.528 53.6094 408.709 53.5341 408.919 53.5341C409.129 53.5341 409.31 53.6094 409.46 53.7599C409.611 53.9105 409.686 54.0909 409.686 54.3011C409.686 54.4403 409.651 54.5682 409.58 54.6847C409.511 54.8011 409.419 54.8949 409.303 54.9659C409.189 55.0341 409.061 55.0682 408.919 55.0682Z" fill="black"/>
<path d="M15.9034 94V93.233L18.7841 90.0795C19.1222 89.7102 19.4006 89.3892 19.6193 89.1165C19.8381 88.8409 20 88.5824 20.1051 88.3409C20.2131 88.0966 20.267 87.8409 20.267 87.5739C20.267 87.267 20.1932 87.0014 20.0455 86.777C19.9006 86.5526 19.7017 86.3793 19.4489 86.2571C19.196 86.1349 18.9119 86.0739 18.5966 86.0739C18.2614 86.0739 17.9688 86.1435 17.7188 86.2827C17.4716 86.419 17.2798 86.6108 17.1435 86.858C17.0099 87.1051 16.9432 87.3949 16.9432 87.7273H15.9375C15.9375 87.2159 16.0554 86.767 16.2912 86.3807C16.527 85.9943 16.848 85.6932 17.2543 85.4773C17.6634 85.2614 18.1222 85.1534 18.6307 85.1534C19.142 85.1534 19.5952 85.2614 19.9901 85.4773C20.3849 85.6932 20.6946 85.9844 20.919 86.3509C21.1435 86.7173 21.2557 87.125 21.2557 87.5739C21.2557 87.8949 21.1974 88.2088 21.081 88.5156C20.9673 88.8196 20.7685 89.1591 20.4844 89.5341C20.2031 89.9062 19.8125 90.3608 19.3125 90.8977L17.3523 92.9943V93.0625H21.4091V94H15.9034ZM26.1179 94.1193C25.5554 94.1193 25.054 94.0227 24.6136 93.8295C24.1761 93.6364 23.8281 93.3679 23.5696 93.0241C23.3139 92.6776 23.1747 92.2756 23.152 91.8182H24.2259C24.2486 92.0994 24.3452 92.3423 24.5156 92.5469C24.6861 92.7486 24.9091 92.9048 25.1847 93.0156C25.4602 93.1264 25.7656 93.1818 26.1009 93.1818C26.4759 93.1818 26.8082 93.1165 27.098 92.9858C27.3878 92.8551 27.6151 92.6733 27.7798 92.4403C27.9446 92.2074 28.027 91.9375 28.027 91.6307C28.027 91.3097 27.9474 91.027 27.7884 90.7827C27.6293 90.5355 27.3963 90.3423 27.0895 90.2031C26.7827 90.0639 26.4077 89.9943 25.9645 89.9943H25.2656V89.0568H25.9645C26.3111 89.0568 26.6151 88.9943 26.8764 88.8693C27.1406 88.7443 27.3466 88.5682 27.4943 88.3409C27.6449 88.1136 27.7202 87.8466 27.7202 87.5398C27.7202 87.2443 27.6548 86.9872 27.5241 86.7685C27.3935 86.5497 27.2088 86.3793 26.9702 86.2571C26.7344 86.1349 26.456 86.0739 26.1349 86.0739C25.8338 86.0739 25.5497 86.1293 25.2827 86.2401C25.0185 86.348 24.8026 86.5057 24.6349 86.7131C24.4673 86.9176 24.3764 87.1648 24.3622 87.4545H23.3395C23.3565 86.9972 23.4943 86.5966 23.7528 86.2528C24.0114 85.9062 24.3494 85.6364 24.767 85.4432C25.1875 85.25 25.6491 85.1534 26.152 85.1534C26.6918 85.1534 27.1548 85.2628 27.5412 85.4815C27.9276 85.6974 28.2244 85.983 28.4318 86.3381C28.6392 86.6932 28.7429 87.0767 28.7429 87.4886C28.7429 87.9801 28.6136 88.3991 28.3551 88.7457C28.0994 89.0923 27.7514 89.3324 27.3111 89.4659V89.5341C27.8622 89.625 28.2926 89.8594 28.6023 90.2372C28.9119 90.6122 29.0668 91.0767 29.0668 91.6307C29.0668 92.1051 28.9375 92.5312 28.679 92.9091C28.4233 93.2841 28.0739 93.5795 27.6307 93.7955C27.1875 94.0114 26.6832 94.1193 26.1179 94.1193ZM33.7074 94.1193C33.3494 94.1136 32.9915 94.0455 32.6335 93.9148C32.2756 93.7841 31.9489 93.5639 31.6534 93.2543C31.358 92.9418 31.1207 92.5199 30.9418 91.9886C30.7628 91.4545 30.6733 90.7841 30.6733 89.9773C30.6733 89.2045 30.7457 88.5199 30.8906 87.9233C31.0355 87.3239 31.2457 86.8196 31.5213 86.4105C31.7969 85.9986 32.1293 85.6861 32.5185 85.473C32.9105 85.2599 33.3523 85.1534 33.8438 85.1534C34.3324 85.1534 34.767 85.2514 35.1477 85.4474C35.5313 85.6406 35.8438 85.9105 36.0852 86.2571C36.3267 86.6037 36.483 87.0028 36.554 87.4545H35.5142C35.4176 87.0625 35.2301 86.7372 34.9517 86.4787C34.6733 86.2202 34.304 86.0909 33.8438 86.0909C33.1676 86.0909 32.6349 86.3849 32.2457 86.973C31.8594 87.5611 31.6648 88.3864 31.6619 89.4489H31.7301C31.8892 89.2074 32.0781 89.0014 32.2969 88.831C32.5185 88.6577 32.7628 88.5241 33.0298 88.4304C33.2969 88.3366 33.5795 88.2898 33.8778 88.2898C34.3778 88.2898 34.8352 88.4148 35.25 88.6648C35.6648 88.9119 35.9972 89.2543 36.2472 89.6918C36.4972 90.1264 36.6222 90.625 36.6222 91.1875C36.6222 91.7273 36.5014 92.2216 36.2599 92.6705C36.0185 93.1165 35.679 93.4716 35.2415 93.7358C34.8068 93.9972 34.2955 94.125 33.7074 94.1193ZM33.7074 93.1818C34.0653 93.1818 34.3864 93.0923 34.6705 92.9134C34.9574 92.7344 35.1832 92.4943 35.348 92.1932C35.5156 91.892 35.5994 91.5568 35.5994 91.1875C35.5994 90.8267 35.5185 90.4986 35.3565 90.2031C35.1974 89.9048 34.9773 89.6676 34.696 89.4915C34.4176 89.3153 34.0994 89.2273 33.7415 89.2273C33.4716 89.2273 33.2202 89.2812 32.9872 89.3892C32.7543 89.4943 32.5497 89.6392 32.3736 89.8239C32.2003 90.0085 32.0639 90.2202 31.9645 90.4588C31.8651 90.6946 31.8153 90.9432 31.8153 91.2045C31.8153 91.5511 31.8963 91.875 32.0582 92.1761C32.223 92.4773 32.4474 92.7202 32.7315 92.9048C33.0185 93.0895 33.3438 93.1818 33.7074 93.1818ZM41.1445 94.1193C40.5025 94.1193 39.9556 93.9446 39.5039 93.5952C39.0522 93.2429 38.707 92.733 38.4684 92.0653C38.2298 91.3949 38.1104 90.5852 38.1104 89.6364C38.1104 88.6932 38.2298 87.8878 38.4684 87.2202C38.7099 86.5497 39.0565 86.0384 39.5082 85.6861C39.9627 85.331 40.5082 85.1534 41.1445 85.1534C41.7809 85.1534 42.3249 85.331 42.7766 85.6861C43.2312 86.0384 43.5778 86.5497 43.8164 87.2202C44.0579 87.8878 44.1786 88.6932 44.1786 89.6364C44.1786 90.5852 44.0593 91.3949 43.8207 92.0653C43.582 92.733 43.2369 93.2429 42.7852 93.5952C42.3335 93.9446 41.7866 94.1193 41.1445 94.1193ZM41.1445 93.1818C41.7809 93.1818 42.2752 92.875 42.6275 92.2614C42.9798 91.6477 43.1559 90.7727 43.1559 89.6364C43.1559 88.8807 43.0749 88.2372 42.913 87.706C42.7539 87.1747 42.5238 86.7699 42.2227 86.4915C41.9244 86.2131 41.565 86.0739 41.1445 86.0739C40.5138 86.0739 40.021 86.3849 39.6658 87.0071C39.3107 87.6264 39.1332 88.5028 39.1332 89.6364C39.1332 90.392 39.2127 91.0341 39.3718 91.5625C39.5309 92.0909 39.7596 92.4929 40.0579 92.7685C40.359 93.044 40.7212 93.1818 41.1445 93.1818ZM48.5252 94.1193C48.0252 94.1193 47.5749 94.0199 47.1744 93.821C46.7738 93.6222 46.4528 93.3494 46.2113 93.0028C45.9698 92.6562 45.8377 92.2614 45.815 91.8182H46.8377C46.8775 92.2131 47.0565 92.5398 47.3746 92.7983C47.6957 93.054 48.0792 93.1818 48.5252 93.1818C48.8832 93.1818 49.2013 93.098 49.4798 92.9304C49.761 92.7628 49.9812 92.5327 50.1403 92.2401C50.3022 91.9446 50.3832 91.6108 50.3832 91.2386C50.3832 90.858 50.2994 90.5185 50.1317 90.2202C49.967 89.919 49.7397 89.6818 49.4499 89.5085C49.1602 89.3352 48.8292 89.2472 48.457 89.2443C48.19 89.2415 47.9158 89.2827 47.6346 89.3679C47.3533 89.4503 47.1218 89.5568 46.94 89.6875L45.9513 89.5682L46.4798 85.2727H51.0138V86.2102H47.3661L47.0593 88.7841H47.1104C47.2894 88.642 47.5138 88.5241 47.7837 88.4304C48.0536 88.3366 48.3349 88.2898 48.6275 88.2898C49.1616 88.2898 49.6374 88.4176 50.055 88.6733C50.4755 88.9261 50.805 89.2727 51.0437 89.7131C51.2852 90.1534 51.4059 90.6562 51.4059 91.2216C51.4059 91.7784 51.2809 92.2756 51.0309 92.7131C50.7837 93.1477 50.4428 93.4915 50.0082 93.7443C49.5735 93.9943 49.0792 94.1193 48.5252 94.1193ZM55.9453 94.1193C55.3033 94.1193 54.7564 93.9446 54.3047 93.5952C53.853 93.2429 53.5078 92.733 53.2692 92.0653C53.0305 91.3949 52.9112 90.5852 52.9112 89.6364C52.9112 88.6932 53.0305 87.8878 53.2692 87.2202C53.5107 86.5497 53.8572 86.0384 54.3089 85.6861C54.7635 85.331 55.3089 85.1534 55.9453 85.1534C56.5817 85.1534 57.1257 85.331 57.5774 85.6861C58.032 86.0384 58.3786 86.5497 58.6172 87.2202C58.8587 87.8878 58.9794 88.6932 58.9794 89.6364C58.9794 90.5852 58.8601 91.3949 58.6214 92.0653C58.3828 92.733 58.0376 93.2429 57.5859 93.5952C57.1342 93.9446 56.5874 94.1193 55.9453 94.1193ZM55.9453 93.1818C56.5817 93.1818 57.076 92.875 57.4283 92.2614C57.7805 91.6477 57.9567 90.7727 57.9567 89.6364C57.9567 88.8807 57.8757 88.2372 57.7138 87.706C57.5547 87.1747 57.3246 86.7699 57.0234 86.4915C56.7251 86.2131 56.3658 86.0739 55.9453 86.0739C55.3146 86.0739 54.8217 86.3849 54.4666 87.0071C54.1115 87.6264 53.9339 88.5028 53.9339 89.6364C53.9339 90.392 54.0135 91.0341 54.1726 91.5625C54.3317 92.0909 54.5604 92.4929 54.8587 92.7685C55.1598 93.044 55.522 93.1818 55.9453 93.1818ZM63.326 94.1193C62.826 94.1193 62.3757 94.0199 61.9751 93.821C61.5746 93.6222 61.2536 93.3494 61.0121 93.0028C60.7706 92.6562 60.6385 92.2614 60.6158 91.8182H61.6385C61.6783 92.2131 61.8572 92.5398 62.1754 92.7983C62.4964 93.054 62.88 93.1818 63.326 93.1818C63.6839 93.1818 64.0021 93.098 64.2805 92.9304C64.5618 92.7628 64.782 92.5327 64.9411 92.2401C65.103 91.9446 65.1839 91.6108 65.1839 91.2386C65.1839 90.858 65.1001 90.5185 64.9325 90.2202C64.7678 89.919 64.5405 89.6818 64.2507 89.5085C63.9609 89.3352 63.63 89.2472 63.2578 89.2443C62.9908 89.2415 62.7166 89.2827 62.4354 89.3679C62.1541 89.4503 61.9226 89.5568 61.7408 89.6875L60.7521 89.5682L61.2805 85.2727H65.8146V86.2102H62.1669L61.8601 88.7841H61.9112C62.0902 88.642 62.3146 88.5241 62.5845 88.4304C62.8544 88.3366 63.1357 88.2898 63.4283 88.2898C63.9624 88.2898 64.4382 88.4176 64.8558 88.6733C65.2763 88.9261 65.6058 89.2727 65.8445 89.7131C66.0859 90.1534 66.2067 90.6562 66.2067 91.2216C66.2067 91.7784 66.0817 92.2756 65.8317 92.7131C65.5845 93.1477 65.2436 93.4915 64.8089 93.7443C64.3743 93.9943 63.88 94.1193 63.326 94.1193ZM67.8995 94V93.233L70.7802 90.0795C71.1183 89.7102 71.3967 89.3892 71.6154 89.1165C71.8342 88.8409 71.9961 88.5824 72.1012 88.3409C72.2092 88.0966 72.2631 87.8409 72.2631 87.5739C72.2631 87.267 72.1893 87.0014 72.0415 86.777C71.8967 86.5526 71.6978 86.3793 71.445 86.2571C71.1921 86.1349 70.908 86.0739 70.5927 86.0739C70.2575 86.0739 69.9648 86.1435 69.7148 86.2827C69.4677 86.419 69.2759 86.6108 69.1396 86.858C69.006 87.1051 68.9393 87.3949 68.9393 87.7273H67.9336C67.9336 87.2159 68.0515 86.767 68.2873 86.3807C68.5231 85.9943 68.8441 85.6932 69.2504 85.4773C69.6594 85.2614 70.1183 85.1534 70.6268 85.1534C71.1381 85.1534 71.5913 85.2614 71.9862 85.4773C72.381 85.6932 72.6907 85.9844 72.9151 86.3509C73.1396 86.7173 73.2518 87.125 73.2518 87.5739C73.2518 87.8949 73.1935 88.2088 73.0771 88.5156C72.9634 88.8196 72.7646 89.1591 72.4805 89.5341C72.1992 89.9062 71.8086 90.3608 71.3086 90.8977L69.3484 92.9943V93.0625H73.4052V94H67.8995ZM75.9151 94.0682C75.7049 94.0682 75.5245 93.9929 75.3739 93.8423C75.2234 93.6918 75.1481 93.5114 75.1481 93.3011C75.1481 93.0909 75.2234 92.9105 75.3739 92.7599C75.5245 92.6094 75.7049 92.5341 75.9151 92.5341C76.1254 92.5341 76.3058 92.6094 76.4563 92.7599C76.6069 92.9105 76.6822 93.0909 76.6822 93.3011C76.6822 93.4403 76.6467 93.5682 76.5756 93.6847C76.5075 93.8011 76.4151 93.8949 76.2987 93.9659C76.185 94.0341 76.0572 94.0682 75.9151 94.0682ZM79.2198 94.0682C79.0096 94.0682 78.8292 93.9929 78.6786 93.8423C78.5281 93.6918 78.4528 93.5114 78.4528 93.3011C78.4528 93.0909 78.5281 92.9105 78.6786 92.7599C78.8292 92.6094 79.0096 92.5341 79.2198 92.5341C79.43 92.5341 79.6104 92.6094 79.761 92.7599C79.9116 92.9105 79.9869 93.0909 79.9869 93.3011C79.9869 93.4403 79.9513 93.5682 79.8803 93.6847C79.8121 93.8011 79.7198 93.8949 79.6033 93.9659C79.4897 94.0341 79.3619 94.0682 79.2198 94.0682ZM82.5245 94.0682C82.3143 94.0682 82.1339 93.9929 81.9833 93.8423C81.8327 93.6918 81.7575 93.5114 81.7575 93.3011C81.7575 93.0909 81.8327 92.9105 81.9833 92.7599C82.1339 92.6094 82.3143 92.5341 82.5245 92.5341C82.7347 92.5341 82.9151 92.6094 83.0657 92.7599C83.2163 92.9105 83.2915 93.0909 83.2915 93.3011C83.2915 93.4403 83.256 93.5682 83.185 93.6847C83.1168 93.8011 83.0245 93.8949 82.908 93.9659C82.7944 94.0341 82.6665 94.0682 82.5245 94.0682Z" fill="black"/>
<path d="M29.0568 136V127.273H34.2898V128.21H30.1136V131.159H33.8977V132.097H30.1136V136H29.0568ZM35.9634 136V129.455H36.9691V136H35.9634ZM36.4748 128.364C36.2788 128.364 36.1097 128.297 35.9677 128.163C35.8285 128.03 35.7589 127.869 35.7589 127.682C35.7589 127.494 35.8285 127.334 35.9677 127.2C36.1097 127.067 36.2788 127 36.4748 127C36.6708 127 36.8384 127.067 36.9776 127.2C37.1197 127.334 37.1907 127.494 37.1907 127.682C37.1907 127.869 37.1197 128.03 36.9776 128.163C36.8384 128.297 36.6708 128.364 36.4748 128.364ZM41.5554 136.136C40.9247 136.136 40.3807 135.997 39.9233 135.719C39.4688 135.438 39.1179 135.045 38.8707 134.543C38.6264 134.037 38.5043 133.449 38.5043 132.778C38.5043 132.108 38.6264 131.517 38.8707 131.006C39.1179 130.491 39.4616 130.091 39.902 129.804C40.3452 129.514 40.8622 129.369 41.4531 129.369C41.794 129.369 42.1307 129.426 42.4631 129.54C42.7955 129.653 43.098 129.838 43.3707 130.094C43.6435 130.347 43.8608 130.682 44.0227 131.099C44.1847 131.517 44.2656 132.031 44.2656 132.642V133.068H39.2202V132.199H43.2429C43.2429 131.83 43.169 131.5 43.0213 131.21C42.8764 130.92 42.669 130.692 42.3991 130.524C42.1321 130.357 41.8168 130.273 41.4531 130.273C41.0526 130.273 40.706 130.372 40.4134 130.571C40.1236 130.767 39.9006 131.023 39.7443 131.338C39.5881 131.653 39.5099 131.991 39.5099 132.352V132.932C39.5099 133.426 39.5952 133.845 39.7656 134.189C39.9389 134.53 40.179 134.79 40.4858 134.969C40.7926 135.145 41.1491 135.233 41.5554 135.233C41.8196 135.233 42.0582 135.196 42.2713 135.122C42.4872 135.045 42.6733 134.932 42.8295 134.781C42.9858 134.628 43.1065 134.437 43.1918 134.21L44.1634 134.483C44.0611 134.812 43.8892 135.102 43.6477 135.352C43.4063 135.599 43.108 135.793 42.7528 135.932C42.3977 136.068 41.9986 136.136 41.5554 136.136ZM46.8011 127.273V136H45.7955V127.273H46.8011ZM51.1147 136.136C50.5692 136.136 50.0877 135.999 49.6701 135.723C49.2525 135.445 48.9258 135.053 48.69 134.547C48.4542 134.038 48.3363 133.438 48.3363 132.744C48.3363 132.057 48.4542 131.46 48.69 130.955C48.9258 130.449 49.2539 130.058 49.6744 129.783C50.0948 129.507 50.5806 129.369 51.1317 129.369C51.5579 129.369 51.8945 129.44 52.1417 129.582C52.3917 129.722 52.582 129.881 52.7127 130.06C52.8462 130.236 52.9499 130.381 53.0238 130.494H53.109V127.273H54.1147V136H53.1431V134.994H53.0238C52.9499 135.114 52.8448 135.264 52.7085 135.446C52.5721 135.625 52.3775 135.786 52.1246 135.928C51.8718 136.067 51.5352 136.136 51.1147 136.136ZM51.2511 135.233C51.6545 135.233 51.9954 135.128 52.2738 134.918C52.5522 134.705 52.7638 134.411 52.9087 134.036C53.0536 133.658 53.1261 133.222 53.1261 132.727C53.1261 132.239 53.055 131.811 52.913 131.445C52.771 131.075 52.5607 130.788 52.2823 130.584C52.0039 130.376 51.6602 130.273 51.2511 130.273C50.8249 130.273 50.4698 130.382 50.1857 130.601C49.9045 130.817 49.6928 131.111 49.5508 131.483C49.4116 131.852 49.342 132.267 49.342 132.727C49.342 133.193 49.413 133.616 49.555 133.997C49.6999 134.375 49.913 134.676 50.1942 134.901C50.4783 135.122 50.8306 135.233 51.2511 135.233ZM56.4542 132.318C56.4542 131.244 56.5934 130.257 56.8718 129.357C57.1531 128.453 57.5536 127.622 58.0735 126.864H58.9599C58.7553 127.145 58.5636 127.491 58.3846 127.903C58.2085 128.312 58.0536 128.763 57.9201 129.254C57.7866 129.743 57.6815 130.249 57.6048 130.771C57.5309 131.294 57.494 131.81 57.494 132.318C57.494 132.994 57.5593 133.68 57.69 134.376C57.8207 135.072 57.9968 135.719 58.2184 136.315C58.44 136.912 58.6871 137.398 58.9599 137.773H58.0735C57.5536 137.014 57.1531 136.185 56.8718 135.284C56.5934 134.381 56.4542 133.392 56.4542 132.318ZM63.2734 136.119C62.6314 136.119 62.0845 135.945 61.6328 135.595C61.1811 135.243 60.8359 134.733 60.5973 134.065C60.3587 133.395 60.2393 132.585 60.2393 131.636C60.2393 130.693 60.3587 129.888 60.5973 129.22C60.8388 128.55 61.1854 128.038 61.6371 127.686C62.0916 127.331 62.6371 127.153 63.2734 127.153C63.9098 127.153 64.4538 127.331 64.9055 127.686C65.3601 128.038 65.7067 128.55 65.9453 129.22C66.1868 129.888 66.3075 130.693 66.3075 131.636C66.3075 132.585 66.1882 133.395 65.9496 134.065C65.7109 134.733 65.3658 135.243 64.9141 135.595C64.4624 135.945 63.9155 136.119 63.2734 136.119ZM63.2734 135.182C63.9098 135.182 64.4041 134.875 64.7564 134.261C65.1087 133.648 65.2848 132.773 65.2848 131.636C65.2848 130.881 65.2038 130.237 65.0419 129.706C64.8828 129.175 64.6527 128.77 64.3516 128.491C64.0533 128.213 63.6939 128.074 63.2734 128.074C62.6428 128.074 62.1499 128.385 61.7947 129.007C61.4396 129.626 61.2621 130.503 61.2621 131.636C61.2621 132.392 61.3416 133.034 61.5007 133.562C61.6598 134.091 61.8885 134.493 62.1868 134.768C62.4879 135.044 62.8501 135.182 63.2734 135.182ZM70.0916 132.318C70.0916 133.392 69.951 134.381 69.6697 135.284C69.3913 136.185 68.9922 137.014 68.4723 137.773H67.5859C67.7905 137.491 67.9808 137.145 68.157 136.733C68.3359 136.324 68.4922 135.875 68.6257 135.386C68.7592 134.895 68.8629 134.388 68.9368 133.865C69.0135 133.339 69.0518 132.824 69.0518 132.318C69.0518 131.642 68.9865 130.956 68.8558 130.26C68.7251 129.564 68.549 128.918 68.3274 128.321C68.1058 127.724 67.8587 127.239 67.5859 126.864H68.4723C68.9922 127.622 69.3913 128.453 69.6697 129.357C69.951 130.257 70.0916 131.244 70.0916 132.318Z" fill="black"/>
<path d="M136 121H189V141H136V121Z" fill="#D9D9D9"/>
<path d="M141.057 136V127.273H146.29V128.21H142.114V131.159H145.898V132.097H142.114V136H141.057ZM147.963 136V129.455H148.969V136H147.963ZM148.475 128.364C148.279 128.364 148.11 128.297 147.968 128.163C147.828 128.03 147.759 127.869 147.759 127.682C147.759 127.494 147.828 127.334 147.968 127.2C148.11 127.067 148.279 127 148.475 127C148.671 127 148.838 127.067 148.978 127.2C149.12 127.334 149.191 127.494 149.191 127.682C149.191 127.869 149.12 128.03 148.978 128.163C148.838 128.297 148.671 128.364 148.475 128.364ZM153.555 136.136C152.925 136.136 152.381 135.997 151.923 135.719C151.469 135.438 151.118 135.045 150.871 134.543C150.626 134.037 150.504 133.449 150.504 132.778C150.504 132.108 150.626 131.517 150.871 131.006C151.118 130.491 151.462 130.091 151.902 129.804C152.345 129.514 152.862 129.369 153.453 129.369C153.794 129.369 154.131 129.426 154.463 129.54C154.795 129.653 155.098 129.838 155.371 130.094C155.643 130.347 155.861 130.682 156.023 131.099C156.185 131.517 156.266 132.031 156.266 132.642V133.068H151.22V132.199H155.243C155.243 131.83 155.169 131.5 155.021 131.21C154.876 130.92 154.669 130.692 154.399 130.524C154.132 130.357 153.817 130.273 153.453 130.273C153.053 130.273 152.706 130.372 152.413 130.571C152.124 130.767 151.901 131.023 151.744 131.338C151.588 131.653 151.51 131.991 151.51 132.352V132.932C151.51 133.426 151.595 133.845 151.766 134.189C151.939 134.53 152.179 134.79 152.486 134.969C152.793 135.145 153.149 135.233 153.555 135.233C153.82 135.233 154.058 135.196 154.271 135.122C154.487 135.045 154.673 134.932 154.83 134.781C154.986 134.628 155.107 134.437 155.192 134.21L156.163 134.483C156.061 134.812 155.889 135.102 155.648 135.352C155.406 135.599 155.108 135.793 154.753 135.932C154.398 136.068 153.999 136.136 153.555 136.136ZM158.801 127.273V136H157.795V127.273H158.801ZM163.115 136.136C162.569 136.136 162.088 135.999 161.67 135.723C161.252 135.445 160.926 135.053 160.69 134.547C160.454 134.038 160.336 133.438 160.336 132.744C160.336 132.057 160.454 131.46 160.69 130.955C160.926 130.449 161.254 130.058 161.674 129.783C162.095 129.507 162.581 129.369 163.132 129.369C163.558 129.369 163.895 129.44 164.142 129.582C164.392 129.722 164.582 129.881 164.713 130.06C164.846 130.236 164.95 130.381 165.024 130.494H165.109V127.273H166.115V136H165.143V134.994H165.024C164.95 135.114 164.845 135.264 164.708 135.446C164.572 135.625 164.377 135.786 164.125 135.928C163.872 136.067 163.535 136.136 163.115 136.136ZM163.251 135.233C163.654 135.233 163.995 135.128 164.274 134.918C164.552 134.705 164.764 134.411 164.909 134.036C165.054 133.658 165.126 133.222 165.126 132.727C165.126 132.239 165.055 131.811 164.913 131.445C164.771 131.075 164.561 130.788 164.282 130.584C164.004 130.376 163.66 130.273 163.251 130.273C162.825 130.273 162.47 130.382 162.186 130.601C161.904 130.817 161.693 131.111 161.551 131.483C161.412 131.852 161.342 132.267 161.342 132.727C161.342 133.193 161.413 133.616 161.555 133.997C161.7 134.375 161.913 134.676 162.194 134.901C162.478 135.122 162.831 135.233 163.251 135.233ZM168.454 132.318C168.454 131.244 168.593 130.257 168.872 129.357C169.153 128.453 169.554 127.622 170.074 126.864H170.96C170.755 127.145 170.564 127.491 170.385 127.903C170.208 128.312 170.054 128.763 169.92 129.254C169.787 129.743 169.681 130.249 169.605 130.771C169.531 131.294 169.494 131.81 169.494 132.318C169.494 132.994 169.559 133.68 169.69 134.376C169.821 135.072 169.997 135.719 170.218 136.315C170.44 136.912 170.687 137.398 170.96 137.773H170.074C169.554 137.014 169.153 136.185 168.872 135.284C168.593 134.381 168.454 133.392 168.454 132.318ZM175.495 127.273V136H174.438V128.381H174.387L172.256 129.795V128.722L174.438 127.273H175.495ZM180.17 132.318C180.17 133.392 180.029 134.381 179.748 135.284C179.469 136.185 179.07 137.014 178.55 137.773H177.664C177.869 137.491 178.059 137.145 178.235 136.733C178.414 136.324 178.57 135.875 178.704 135.386C178.837 134.895 178.941 134.388 179.015 133.865C179.092 133.339 179.13 132.824 179.13 132.318C179.13 131.642 179.065 130.956 178.934 130.26C178.803 129.564 178.627 128.918 178.406 128.321C178.184 127.724 177.937 127.239 177.664 126.864H178.55C179.07 127.622 179.469 128.453 179.748 129.357C180.029 130.257 180.17 131.244 180.17 132.318Z" fill="black"/>
<path d="M289 121H342V141H289V121Z" fill="#D9D9D9"/>
<path d="M294.057 136V127.273H299.29V128.21H295.114V131.159H298.898V132.097H295.114V136H294.057ZM300.963 136V129.455H301.969V136H300.963ZM301.475 128.364C301.279 128.364 301.11 128.297 300.968 128.163C300.828 128.03 300.759 127.869 300.759 127.682C300.759 127.494 300.828 127.334 300.968 127.2C301.11 127.067 301.279 127 301.475 127C301.671 127 301.838 127.067 301.978 127.2C302.12 127.334 302.191 127.494 302.191 127.682C302.191 127.869 302.12 128.03 301.978 128.163C301.838 128.297 301.671 128.364 301.475 128.364ZM306.555 136.136C305.925 136.136 305.381 135.997 304.923 135.719C304.469 135.438 304.118 135.045 303.871 134.543C303.626 134.037 303.504 133.449 303.504 132.778C303.504 132.108 303.626 131.517 303.871 131.006C304.118 130.491 304.462 130.091 304.902 129.804C305.345 129.514 305.862 129.369 306.453 129.369C306.794 129.369 307.131 129.426 307.463 129.54C307.795 129.653 308.098 129.838 308.371 130.094C308.643 130.347 308.861 130.682 309.023 131.099C309.185 131.517 309.266 132.031 309.266 132.642V133.068H304.22V132.199H308.243C308.243 131.83 308.169 131.5 308.021 131.21C307.876 130.92 307.669 130.692 307.399 130.524C307.132 130.357 306.817 130.273 306.453 130.273C306.053 130.273 305.706 130.372 305.413 130.571C305.124 130.767 304.901 131.023 304.744 131.338C304.588 131.653 304.51 131.991 304.51 132.352V132.932C304.51 133.426 304.595 133.845 304.766 134.189C304.939 134.53 305.179 134.79 305.486 134.969C305.793 135.145 306.149 135.233 306.555 135.233C306.82 135.233 307.058 135.196 307.271 135.122C307.487 135.045 307.673 134.932 307.83 134.781C307.986 134.628 308.107 134.437 308.192 134.21L309.163 134.483C309.061 134.812 308.889 135.102 308.648 135.352C308.406 135.599 308.108 135.793 307.753 135.932C307.398 136.068 306.999 136.136 306.555 136.136ZM311.801 127.273V136H310.795V127.273H311.801ZM316.115 136.136C315.569 136.136 315.088 135.999 314.67 135.723C314.252 135.445 313.926 135.053 313.69 134.547C313.454 134.038 313.336 133.438 313.336 132.744C313.336 132.057 313.454 131.46 313.69 130.955C313.926 130.449 314.254 130.058 314.674 129.783C315.095 129.507 315.581 129.369 316.132 129.369C316.558 129.369 316.895 129.44 317.142 129.582C317.392 129.722 317.582 129.881 317.713 130.06C317.846 130.236 317.95 130.381 318.024 130.494H318.109V127.273H319.115V136H318.143V134.994H318.024C317.95 135.114 317.845 135.264 317.708 135.446C317.572 135.625 317.377 135.786 317.125 135.928C316.872 136.067 316.535 136.136 316.115 136.136ZM316.251 135.233C316.654 135.233 316.995 135.128 317.274 134.918C317.552 134.705 317.764 134.411 317.909 134.036C318.054 133.658 318.126 133.222 318.126 132.727C318.126 132.239 318.055 131.811 317.913 131.445C317.771 131.075 317.561 130.788 317.282 130.584C317.004 130.376 316.66 130.273 316.251 130.273C315.825 130.273 315.47 130.382 315.186 130.601C314.904 130.817 314.693 131.111 314.551 131.483C314.412 131.852 314.342 132.267 314.342 132.727C314.342 133.193 314.413 133.616 314.555 133.997C314.7 134.375 314.913 134.676 315.194 134.901C315.478 135.122 315.831 135.233 316.251 135.233ZM321.454 132.318C321.454 131.244 321.593 130.257 321.872 129.357C322.153 128.453 322.554 127.622 323.074 126.864H323.96C323.755 127.145 323.564 127.491 323.385 127.903C323.208 128.312 323.054 128.763 322.92 129.254C322.787 129.743 322.681 130.249 322.605 130.771C322.531 131.294 322.494 131.81 322.494 132.318C322.494 132.994 322.559 133.68 322.69 134.376C322.821 135.072 322.997 135.719 323.218 136.315C323.44 136.912 323.687 137.398 323.96 137.773H323.074C322.554 137.014 322.153 136.185 321.872 135.284C321.593 134.381 321.454 133.392 321.454 132.318ZM325.427 136V135.233L328.308 132.08C328.646 131.71 328.924 131.389 329.143 131.116C329.362 130.841 329.523 130.582 329.629 130.341C329.737 130.097 329.79 129.841 329.79 129.574C329.79 129.267 329.717 129.001 329.569 128.777C329.424 128.553 329.225 128.379 328.972 128.257C328.719 128.135 328.435 128.074 328.12 128.074C327.785 128.074 327.492 128.143 327.242 128.283C326.995 128.419 326.803 128.611 326.667 128.858C326.533 129.105 326.467 129.395 326.467 129.727H325.461C325.461 129.216 325.579 128.767 325.815 128.381C326.05 127.994 326.371 127.693 326.778 127.477C327.187 127.261 327.646 127.153 328.154 127.153C328.665 127.153 329.119 127.261 329.513 127.477C329.908 127.693 330.218 127.984 330.442 128.351C330.667 128.717 330.779 129.125 330.779 129.574C330.779 129.895 330.721 130.209 330.604 130.516C330.491 130.82 330.292 131.159 330.008 131.534C329.727 131.906 329.336 132.361 328.836 132.898L326.876 134.994V135.062H330.933V136H325.427ZM334.857 132.318C334.857 133.392 334.717 134.381 334.435 135.284C334.157 136.185 333.758 137.014 333.238 137.773H332.352C332.556 137.491 332.746 137.145 332.923 136.733C333.102 136.324 333.258 135.875 333.391 135.386C333.525 134.895 333.629 134.388 333.702 133.865C333.779 133.339 333.817 132.824 333.817 132.318C333.817 131.642 333.752 130.956 333.621 130.26C333.491 129.564 333.315 128.918 333.093 128.321C332.871 127.724 332.624 127.239 332.352 126.864H333.238C333.758 127.622 334.157 128.453 334.435 129.357C334.717 130.257 334.857 131.244 334.857 132.318Z" fill="black"/>
<path d="M413 121H466V141H413V121Z" fill="#D9D9D9"/>
<path d="M418.057 136V127.273H423.29V128.21H419.114V131.159H422.898V132.097H419.114V136H418.057ZM424.963 136V129.455H425.969V136H424.963ZM425.475 128.364C425.279 128.364 425.11 128.297 424.968 128.163C424.828 128.03 424.759 127.869 424.759 127.682C424.759 127.494 424.828 127.334 424.968 127.2C425.11 127.067 425.279 127 425.475 127C425.671 127 425.838 127.067 425.978 127.2C426.12 127.334 426.191 127.494 426.191 127.682C426.191 127.869 426.12 128.03 425.978 128.163C425.838 128.297 425.671 128.364 425.475 128.364ZM430.555 136.136C429.925 136.136 429.381 135.997 428.923 135.719C428.469 135.438 428.118 135.045 427.871 134.543C427.626 134.037 427.504 133.449 427.504 132.778C427.504 132.108 427.626 131.517 427.871 131.006C428.118 130.491 428.462 130.091 428.902 129.804C429.345 129.514 429.862 129.369 430.453 129.369C430.794 129.369 431.131 129.426 431.463 129.54C431.795 129.653 432.098 129.838 432.371 130.094C432.643 130.347 432.861 130.682 433.023 131.099C433.185 131.517 433.266 132.031 433.266 132.642V133.068H428.22V132.199H432.243C432.243 131.83 432.169 131.5 432.021 131.21C431.876 130.92 431.669 130.692 431.399 130.524C431.132 130.357 430.817 130.273 430.453 130.273C430.053 130.273 429.706 130.372 429.413 130.571C429.124 130.767 428.901 131.023 428.744 131.338C428.588 131.653 428.51 131.991 428.51 132.352V132.932C428.51 133.426 428.595 133.845 428.766 134.189C428.939 134.53 429.179 134.79 429.486 134.969C429.793 135.145 430.149 135.233 430.555 135.233C430.82 135.233 431.058 135.196 431.271 135.122C431.487 135.045 431.673 134.932 431.83 134.781C431.986 134.628 432.107 134.437 432.192 134.21L433.163 134.483C433.061 134.812 432.889 135.102 432.648 135.352C432.406 135.599 432.108 135.793 431.753 135.932C431.398 136.068 430.999 136.136 430.555 136.136ZM435.801 127.273V136H434.795V127.273H435.801ZM440.115 136.136C439.569 136.136 439.088 135.999 438.67 135.723C438.252 135.445 437.926 135.053 437.69 134.547C437.454 134.038 437.336 133.438 437.336 132.744C437.336 132.057 437.454 131.46 437.69 130.955C437.926 130.449 438.254 130.058 438.674 129.783C439.095 129.507 439.581 129.369 440.132 129.369C440.558 129.369 440.895 129.44 441.142 129.582C441.392 129.722 441.582 129.881 441.713 130.06C441.846 130.236 441.95 130.381 442.024 130.494H442.109V127.273H443.115V136H442.143V134.994H442.024C441.95 135.114 441.845 135.264 441.708 135.446C441.572 135.625 441.377 135.786 441.125 135.928C440.872 136.067 440.535 136.136 440.115 136.136ZM440.251 135.233C440.654 135.233 440.995 135.128 441.274 134.918C441.552 134.705 441.764 134.411 441.909 134.036C442.054 133.658 442.126 133.222 442.126 132.727C442.126 132.239 442.055 131.811 441.913 131.445C441.771 131.075 441.561 130.788 441.282 130.584C441.004 130.376 440.66 130.273 440.251 130.273C439.825 130.273 439.47 130.382 439.186 130.601C438.904 130.817 438.693 131.111 438.551 131.483C438.412 131.852 438.342 132.267 438.342 132.727C438.342 133.193 438.413 133.616 438.555 133.997C438.7 134.375 438.913 134.676 439.194 134.901C439.478 135.122 439.831 135.233 440.251 135.233ZM445.454 132.318C445.454 131.244 445.593 130.257 445.872 129.357C446.153 128.453 446.554 127.622 447.074 126.864H447.96C447.755 127.145 447.564 127.491 447.385 127.903C447.208 128.312 447.054 128.763 446.92 129.254C446.787 129.743 446.681 130.249 446.605 130.771C446.531 131.294 446.494 131.81 446.494 132.318C446.494 132.994 446.559 133.68 446.69 134.376C446.821 135.072 446.997 135.719 447.218 136.315C447.44 136.912 447.687 137.398 447.96 137.773H447.074C446.554 137.014 446.153 136.185 445.872 135.284C445.593 134.381 445.454 133.392 445.454 132.318ZM452.376 136.119C451.813 136.119 451.312 136.023 450.871 135.83C450.434 135.636 450.086 135.368 449.827 135.024C449.572 134.678 449.433 134.276 449.41 133.818H450.484C450.506 134.099 450.603 134.342 450.773 134.547C450.944 134.749 451.167 134.905 451.442 135.016C451.718 135.126 452.023 135.182 452.359 135.182C452.734 135.182 453.066 135.116 453.356 134.986C453.646 134.855 453.873 134.673 454.038 134.44C454.202 134.207 454.285 133.938 454.285 133.631C454.285 133.31 454.205 133.027 454.046 132.783C453.887 132.536 453.654 132.342 453.347 132.203C453.04 132.064 452.665 131.994 452.222 131.994H451.523V131.057H452.222C452.569 131.057 452.873 130.994 453.134 130.869C453.398 130.744 453.604 130.568 453.752 130.341C453.903 130.114 453.978 129.847 453.978 129.54C453.978 129.244 453.913 128.987 453.782 128.768C453.651 128.55 453.467 128.379 453.228 128.257C452.992 128.135 452.714 128.074 452.393 128.074C452.092 128.074 451.808 128.129 451.54 128.24C451.276 128.348 451.06 128.506 450.893 128.713C450.725 128.918 450.634 129.165 450.62 129.455H449.597C449.614 128.997 449.752 128.597 450.011 128.253C450.269 127.906 450.607 127.636 451.025 127.443C451.445 127.25 451.907 127.153 452.41 127.153C452.95 127.153 453.413 127.263 453.799 127.482C454.185 127.697 454.482 127.983 454.69 128.338C454.897 128.693 455.001 129.077 455.001 129.489C455.001 129.98 454.871 130.399 454.613 130.746C454.357 131.092 454.009 131.332 453.569 131.466V131.534C454.12 131.625 454.55 131.859 454.86 132.237C455.17 132.612 455.325 133.077 455.325 133.631C455.325 134.105 455.195 134.531 454.937 134.909C454.681 135.284 454.332 135.58 453.888 135.795C453.445 136.011 452.941 136.119 452.376 136.119ZM459.232 132.318C459.232 133.392 459.092 134.381 458.81 135.284C458.532 136.185 458.133 137.014 457.613 137.773H456.727C456.931 137.491 457.121 137.145 457.298 136.733C457.477 136.324 457.633 135.875 457.766 135.386C457.9 134.895 458.004 134.388 458.077 133.865C458.154 133.339 458.192 132.824 458.192 132.318C458.192 131.642 458.127 130.956 457.996 130.26C457.866 129.564 457.69 128.918 457.468 128.321C457.246 127.724 456.999 127.239 456.727 126.864H457.613C458.133 127.622 458.532 128.453 458.81 129.357C459.092 130.257 459.232 131.244 459.232 132.318Z" fill="black"/>
<path d="M144.972 85.2727V94H143.915V86.3807H143.864L141.733 87.7955V86.7216L143.915 85.2727H144.972ZM150.43 94.1193C149.868 94.1193 149.366 94.0227 148.926 93.8295C148.489 93.6364 148.141 93.3679 147.882 93.0241C147.626 92.6776 147.487 92.2756 147.464 91.8182H148.538C148.561 92.0994 148.658 92.3423 148.828 92.5469C148.999 92.7486 149.222 92.9048 149.497 93.0156C149.773 93.1264 150.078 93.1818 150.413 93.1818C150.788 93.1818 151.121 93.1165 151.411 92.9858C151.7 92.8551 151.928 92.6733 152.092 92.4403C152.257 92.2074 152.339 91.9375 152.339 91.6307C152.339 91.3097 152.26 91.027 152.101 90.7827C151.942 90.5355 151.709 90.3423 151.402 90.2031C151.095 90.0639 150.72 89.9943 150.277 89.9943H149.578V89.0568H150.277C150.624 89.0568 150.928 88.9943 151.189 88.8693C151.453 88.7443 151.659 88.5682 151.807 88.3409C151.957 88.1136 152.033 87.8466 152.033 87.5398C152.033 87.2443 151.967 86.9872 151.837 86.7685C151.706 86.5497 151.521 86.3793 151.283 86.2571C151.047 86.1349 150.768 86.0739 150.447 86.0739C150.146 86.0739 149.862 86.1293 149.595 86.2401C149.331 86.348 149.115 86.5057 148.947 86.7131C148.78 86.9176 148.689 87.1648 148.675 87.4545H147.652C147.669 86.9972 147.807 86.5966 148.065 86.2528C148.324 85.9062 148.662 85.6364 149.08 85.4432C149.5 85.25 149.962 85.1534 150.464 85.1534C151.004 85.1534 151.467 85.2628 151.854 85.4815C152.24 85.6974 152.537 85.983 152.744 86.3381C152.952 86.6932 153.055 87.0767 153.055 87.4886C153.055 87.9801 152.926 88.3991 152.668 88.7457C152.412 89.0923 152.064 89.3324 151.624 89.4659V89.5341C152.175 89.625 152.605 89.8594 152.915 90.2372C153.224 90.6122 153.379 91.0767 153.379 91.6307C153.379 92.1051 153.25 92.5312 152.991 92.9091C152.736 93.2841 152.386 93.5795 151.943 93.7955C151.5 94.0114 150.996 94.1193 150.43 94.1193ZM158.071 94.1193C157.509 94.1193 157.007 94.0227 156.567 93.8295C156.129 93.6364 155.781 93.3679 155.523 93.0241C155.267 92.6776 155.128 92.2756 155.105 91.8182H156.179C156.202 92.0994 156.298 92.3423 156.469 92.5469C156.639 92.7486 156.862 92.9048 157.138 93.0156C157.413 93.1264 157.719 93.1818 158.054 93.1818C158.429 93.1818 158.761 93.1165 159.051 92.9858C159.341 92.8551 159.568 92.6733 159.733 92.4403C159.898 92.2074 159.98 91.9375 159.98 91.6307C159.98 91.3097 159.901 91.027 159.741 90.7827C159.582 90.5355 159.349 90.3423 159.043 90.2031C158.736 90.0639 158.361 89.9943 157.918 89.9943H157.219V89.0568H157.918C158.264 89.0568 158.568 88.9943 158.83 88.8693C159.094 88.7443 159.3 88.5682 159.447 88.3409C159.598 88.1136 159.673 87.8466 159.673 87.5398C159.673 87.2443 159.608 86.9872 159.477 86.7685C159.347 86.5497 159.162 86.3793 158.923 86.2571C158.688 86.1349 158.409 86.0739 158.088 86.0739C157.787 86.0739 157.503 86.1293 157.236 86.2401C156.972 86.348 156.756 86.5057 156.588 86.7131C156.42 86.9176 156.33 87.1648 156.315 87.4545H155.293C155.31 86.9972 155.447 86.5966 155.706 86.2528C155.964 85.9062 156.303 85.6364 156.72 85.4432C157.141 85.25 157.602 85.1534 158.105 85.1534C158.645 85.1534 159.108 85.2628 159.494 85.4815C159.881 85.6974 160.178 85.983 160.385 86.3381C160.592 86.6932 160.696 87.0767 160.696 87.4886C160.696 87.9801 160.567 88.3991 160.308 88.7457C160.053 89.0923 159.705 89.3324 159.264 89.4659V89.5341C159.815 89.625 160.246 89.8594 160.555 90.2372C160.865 90.6122 161.02 91.0767 161.02 91.6307C161.02 92.1051 160.891 92.5312 160.632 92.9091C160.376 93.2841 160.027 93.5795 159.584 93.7955C159.141 94.0114 158.636 94.1193 158.071 94.1193ZM165.49 94.1193C164.99 94.1193 164.54 94.0199 164.139 93.821C163.739 93.6222 163.418 93.3494 163.176 93.0028C162.935 92.6562 162.803 92.2614 162.78 91.8182H163.803C163.842 92.2131 164.021 92.5398 164.339 92.7983C164.661 93.054 165.044 93.1818 165.49 93.1818C165.848 93.1818 166.166 93.098 166.445 92.9304C166.726 92.7628 166.946 92.5327 167.105 92.2401C167.267 91.9446 167.348 91.6108 167.348 91.2386C167.348 90.858 167.264 90.5185 167.097 90.2202C166.932 89.919 166.705 89.6818 166.415 89.5085C166.125 89.3352 165.794 89.2472 165.422 89.2443C165.155 89.2415 164.881 89.2827 164.599 89.3679C164.318 89.4503 164.087 89.5568 163.905 89.6875L162.916 89.5682L163.445 85.2727H167.979V86.2102H164.331L164.024 88.7841H164.075C164.254 88.642 164.479 88.5241 164.749 88.4304C165.018 88.3366 165.3 88.2898 165.592 88.2898C166.126 88.2898 166.602 88.4176 167.02 88.6733C167.44 88.9261 167.77 89.2727 168.009 89.7131C168.25 90.1534 168.371 90.6562 168.371 91.2216C168.371 91.7784 168.246 92.2756 167.996 92.7131C167.749 93.1477 167.408 93.4915 166.973 93.7443C166.538 93.9943 166.044 94.1193 165.49 94.1193ZM172.91 94.1193C172.268 94.1193 171.721 93.9446 171.27 93.5952C170.818 93.2429 170.473 92.733 170.234 92.0653C169.995 91.3949 169.876 90.5852 169.876 89.6364C169.876 88.6932 169.995 87.8878 170.234 87.2202C170.475 86.5497 170.822 86.0384 171.274 85.6861C171.728 85.331 172.274 85.1534 172.91 85.1534C173.547 85.1534 174.091 85.331 174.542 85.6861C174.997 86.0384 175.343 86.5497 175.582 87.2202C175.824 87.8878 175.944 88.6932 175.944 89.6364C175.944 90.5852 175.825 91.3949 175.586 92.0653C175.348 92.733 175.002 93.2429 174.551 93.5952C174.099 93.9446 173.552 94.1193 172.91 94.1193ZM172.91 93.1818C173.547 93.1818 174.041 92.875 174.393 92.2614C174.745 91.6477 174.922 90.7727 174.922 89.6364C174.922 88.8807 174.841 88.2372 174.679 87.706C174.52 87.1747 174.289 86.7699 173.988 86.4915C173.69 86.2131 173.331 86.0739 172.91 86.0739C172.279 86.0739 171.787 86.3849 171.431 87.0071C171.076 87.6264 170.899 88.5028 170.899 89.6364C170.899 90.392 170.978 91.0341 171.137 91.5625C171.297 92.0909 171.525 92.4929 171.824 92.7685C172.125 93.044 172.487 93.1818 172.91 93.1818ZM177.564 94V93.233L180.444 90.0795C180.782 89.7102 181.061 89.3892 181.279 89.1165C181.498 88.8409 181.66 88.5824 181.765 88.3409C181.873 88.0966 181.927 87.8409 181.927 87.5739C181.927 87.267 181.853 87.0014 181.706 86.777C181.561 86.5526 181.362 86.3793 181.109 86.2571C180.856 86.1349 180.572 86.0739 180.257 86.0739C179.922 86.0739 179.629 86.1435 179.379 86.2827C179.132 86.419 178.94 86.6108 178.804 86.858C178.67 87.1051 178.603 87.3949 178.603 87.7273H177.598C177.598 87.2159 177.716 86.767 177.951 86.3807C178.187 85.9943 178.508 85.6932 178.914 85.4773C179.324 85.2614 179.782 85.1534 180.291 85.1534C180.802 85.1534 181.255 85.2614 181.65 85.4773C182.045 85.6932 182.355 85.9844 182.579 86.3509C182.804 86.7173 182.916 87.125 182.916 87.5739C182.916 87.8949 182.858 88.2088 182.741 88.5156C182.627 88.8196 182.429 89.1591 182.145 89.5341C181.863 89.9062 181.473 90.3608 180.973 90.8977L179.012 92.9943V93.0625H183.069V94H177.564ZM187.625 94.1193C187.039 94.1193 186.522 94.0156 186.074 93.8082C185.627 93.598 185.279 93.3097 185.029 92.9432C184.779 92.5739 184.656 92.1534 184.659 91.6818C184.656 91.3125 184.728 90.9716 184.876 90.6591C185.024 90.3437 185.225 90.081 185.481 89.8707C185.74 89.6577 186.028 89.5227 186.346 89.4659V89.4148C185.929 89.3068 185.596 89.0724 185.349 88.7116C185.102 88.348 184.98 87.9347 184.983 87.4716C184.98 87.0284 185.092 86.6321 185.319 86.2827C185.547 85.9332 185.859 85.6577 186.257 85.456C186.657 85.2543 187.113 85.1534 187.625 85.1534C188.13 85.1534 188.582 85.2543 188.98 85.456C189.377 85.6577 189.69 85.9332 189.917 86.2827C190.147 86.6321 190.264 87.0284 190.267 87.4716C190.264 87.9347 190.137 88.348 189.887 88.7116C189.64 89.0724 189.312 89.3068 188.903 89.4148V89.4659C189.218 89.5227 189.502 89.6577 189.755 89.8707C190.008 90.081 190.21 90.3437 190.36 90.6591C190.511 90.9716 190.588 91.3125 190.591 91.6818C190.588 92.1534 190.46 92.5739 190.207 92.9432C189.957 93.3097 189.609 93.598 189.163 93.8082C188.72 94.0156 188.207 94.1193 187.625 94.1193ZM187.625 93.1818C188.02 93.1818 188.36 93.1179 188.647 92.9901C188.934 92.8622 189.156 92.6818 189.312 92.4489C189.468 92.2159 189.548 91.9432 189.551 91.6307C189.548 91.3011 189.463 91.0099 189.295 90.7571C189.127 90.5043 188.899 90.3054 188.609 90.1605C188.322 90.0156 187.994 89.9432 187.625 89.9432C187.252 89.9432 186.92 90.0156 186.627 90.1605C186.338 90.3054 186.109 90.5043 185.941 90.7571C185.777 91.0099 185.696 91.3011 185.699 91.6307C185.696 91.9432 185.771 92.2159 185.924 92.4489C186.081 92.6818 186.304 92.8622 186.593 92.9901C186.883 93.1179 187.227 93.1818 187.625 93.1818ZM187.625 89.0398C187.937 89.0398 188.214 88.9773 188.456 88.8523C188.7 88.7273 188.892 88.5526 189.031 88.3281C189.17 88.1037 189.241 87.8409 189.244 87.5398C189.241 87.2443 189.172 86.9872 189.035 86.7685C188.899 86.5469 188.71 86.3764 188.468 86.2571C188.227 86.1349 187.946 86.0739 187.625 86.0739C187.298 86.0739 187.012 86.1349 186.768 86.2571C186.524 86.3764 186.335 86.5469 186.201 86.7685C186.068 86.9872 186.002 87.2443 186.005 87.5398C186.002 87.8409 186.069 88.1037 186.206 88.3281C186.345 88.5526 186.537 88.7273 186.781 88.8523C187.025 88.9773 187.306 89.0398 187.625 89.0398ZM195.173 94.1193C194.61 94.1193 194.109 94.0227 193.668 93.8295C193.231 93.6364 192.883 93.3679 192.624 93.0241C192.369 92.6776 192.229 92.2756 192.207 91.8182H193.281C193.303 92.0994 193.4 92.3423 193.57 92.5469C193.741 92.7486 193.964 92.9048 194.239 93.0156C194.515 93.1264 194.82 93.1818 195.156 93.1818C195.531 93.1818 195.863 93.1165 196.153 92.9858C196.442 92.8551 196.67 92.6733 196.835 92.4403C196.999 92.2074 197.082 91.9375 197.082 91.6307C197.082 91.3097 197.002 91.027 196.843 90.7827C196.684 90.5355 196.451 90.3423 196.144 90.2031C195.837 90.0639 195.462 89.9943 195.019 89.9943H194.32V89.0568H195.019C195.366 89.0568 195.67 88.9943 195.931 88.8693C196.195 88.7443 196.401 88.5682 196.549 88.3409C196.7 88.1136 196.775 87.8466 196.775 87.5398C196.775 87.2443 196.71 86.9872 196.579 86.7685C196.448 86.5497 196.263 86.3793 196.025 86.2571C195.789 86.1349 195.511 86.0739 195.19 86.0739C194.888 86.0739 194.604 86.1293 194.337 86.2401C194.073 86.348 193.857 86.5057 193.69 86.7131C193.522 86.9176 193.431 87.1648 193.417 87.4545H192.394C192.411 86.9972 192.549 86.5966 192.808 86.2528C193.066 85.9062 193.404 85.6364 193.822 85.4432C194.242 85.25 194.704 85.1534 195.207 85.1534C195.746 85.1534 196.21 85.2628 196.596 85.4815C196.982 85.6974 197.279 85.983 197.487 86.3381C197.694 86.6932 197.798 87.0767 197.798 87.4886C197.798 87.9801 197.668 88.3991 197.41 88.7457C197.154 89.0923 196.806 89.3324 196.366 89.4659V89.5341C196.917 89.625 197.347 89.8594 197.657 90.2372C197.967 90.6122 198.121 91.0767 198.121 91.6307C198.121 92.1051 197.992 92.5312 197.734 92.9091C197.478 93.2841 197.129 93.5795 196.685 93.7955C196.242 94.0114 195.738 94.1193 195.173 94.1193ZM200.345 94.0682C200.135 94.0682 199.954 93.9929 199.804 93.8423C199.653 93.6918 199.578 93.5114 199.578 93.3011C199.578 93.0909 199.653 92.9105 199.804 92.7599C199.954 92.6094 200.135 92.5341 200.345 92.5341C200.555 92.5341 200.735 92.6094 200.886 92.7599C201.037 92.9105 201.112 93.0909 201.112 93.3011C201.112 93.4403 201.076 93.5682 201.005 93.6847C200.937 93.8011 200.845 93.8949 200.728 93.9659C200.615 94.0341 200.487 94.0682 200.345 94.0682ZM203.65 94.0682C203.439 94.0682 203.259 93.9929 203.108 93.8423C202.958 93.6918 202.882 93.5114 202.882 93.3011C202.882 93.0909 202.958 92.9105 203.108 92.7599C203.259 92.6094 203.439 92.5341 203.65 92.5341C203.86 92.5341 204.04 92.6094 204.191 92.7599C204.341 92.9105 204.417 93.0909 204.417 93.3011C204.417 93.4403 204.381 93.5682 204.31 93.6847C204.242 93.8011 204.15 93.8949 204.033 93.9659C203.919 94.0341 203.792 94.0682 203.65 94.0682ZM206.954 94.0682C206.744 94.0682 206.564 93.9929 206.413 93.8423C206.262 93.6918 206.187 93.5114 206.187 93.3011C206.187 93.0909 206.262 92.9105 206.413 92.7599C206.564 92.6094 206.744 92.5341 206.954 92.5341C207.164 92.5341 207.345 92.6094 207.495 92.7599C207.646 92.9105 207.721 93.0909 207.721 93.3011C207.721 93.4403 207.686 93.5682 207.615 93.6847C207.547 93.8011 207.454 93.8949 207.338 93.9659C207.224 94.0341 207.096 94.0682 206.954 94.0682Z" fill="black"/>
<path d="M284.631 94.1193C284.131 94.1193 283.68 94.0199 283.28 93.821C282.879 93.6222 282.558 93.3494 282.317 93.0028C282.075 92.6562 281.943 92.2614 281.92 91.8182H282.943C282.983 92.2131 283.162 92.5398 283.48 92.7983C283.801 93.054 284.185 93.1818 284.631 93.1818C284.989 93.1818 285.307 93.098 285.585 92.9304C285.866 92.7628 286.087 92.5327 286.246 92.2401C286.408 91.9446 286.489 91.6108 286.489 91.2386C286.489 90.858 286.405 90.5185 286.237 90.2202C286.072 89.919 285.845 89.6818 285.555 89.5085C285.266 89.3352 284.935 89.2472 284.562 89.2443C284.295 89.2415 284.021 89.2827 283.74 89.3679C283.459 89.4503 283.227 89.5568 283.045 89.6875L282.057 89.5682L282.585 85.2727H287.119V86.2102H283.472L283.165 88.7841H283.216C283.395 88.642 283.619 88.5241 283.889 88.4304C284.159 88.3366 284.44 88.2898 284.733 88.2898C285.267 88.2898 285.743 88.4176 286.161 88.6733C286.581 88.9261 286.911 89.2727 287.149 89.7131C287.391 90.1534 287.511 90.6562 287.511 91.2216C287.511 91.7784 287.386 92.2756 287.136 92.7131C286.889 93.1477 286.548 93.4915 286.114 93.7443C285.679 93.9943 285.185 94.1193 284.631 94.1193ZM289.204 94V93.233L292.085 90.0795C292.423 89.7102 292.701 89.3892 292.92 89.1165C293.139 88.8409 293.301 88.5824 293.406 88.3409C293.514 88.0966 293.568 87.8409 293.568 87.5739C293.568 87.267 293.494 87.0014 293.346 86.777C293.201 86.5526 293.002 86.3793 292.75 86.2571C292.497 86.1349 292.213 86.0739 291.897 86.0739C291.562 86.0739 291.27 86.1435 291.02 86.2827C290.772 86.419 290.581 86.6108 290.444 86.858C290.311 87.1051 290.244 87.3949 290.244 87.7273H289.238C289.238 87.2159 289.356 86.767 289.592 86.3807C289.828 85.9943 290.149 85.6932 290.555 85.4773C290.964 85.2614 291.423 85.1534 291.931 85.1534C292.443 85.1534 292.896 85.2614 293.291 85.4773C293.686 85.6932 293.995 85.9844 294.22 86.3509C294.444 86.7173 294.556 87.125 294.556 87.5739C294.556 87.8949 294.498 88.2088 294.382 88.5156C294.268 88.8196 294.069 89.1591 293.785 89.5341C293.504 89.9062 293.113 90.3608 292.613 90.8977L290.653 92.9943V93.0625H294.71V94H289.204ZM299.316 94.1193C298.674 94.1193 298.127 93.9446 297.676 93.5952C297.224 93.2429 296.879 92.733 296.64 92.0653C296.402 91.3949 296.282 90.5852 296.282 89.6364C296.282 88.6932 296.402 87.8878 296.64 87.2202C296.882 86.5497 297.228 86.0384 297.68 85.6861C298.135 85.331 298.68 85.1534 299.316 85.1534C299.953 85.1534 300.497 85.331 300.949 85.6861C301.403 86.0384 301.75 86.5497 301.988 87.2202C302.23 87.8878 302.35 88.6932 302.35 89.6364C302.35 90.5852 302.231 91.3949 301.993 92.0653C301.754 92.733 301.409 93.2429 300.957 93.5952C300.505 93.9446 299.958 94.1193 299.316 94.1193ZM299.316 93.1818C299.953 93.1818 300.447 92.875 300.799 92.2614C301.152 91.6477 301.328 90.7727 301.328 89.6364C301.328 88.8807 301.247 88.2372 301.085 87.706C300.926 87.1747 300.696 86.7699 300.395 86.4915C300.096 86.2131 299.737 86.0739 299.316 86.0739C298.686 86.0739 298.193 86.3849 297.838 87.0071C297.483 87.6264 297.305 88.5028 297.305 89.6364C297.305 90.392 297.385 91.0341 297.544 91.5625C297.703 92.0909 297.931 92.4929 298.23 92.7685C298.531 93.044 298.893 93.1818 299.316 93.1818ZM303.765 92.2102V91.3409L307.6 85.2727H308.231V86.6193H307.805L304.907 91.2045V91.2727H310.072V92.2102H303.765ZM307.873 94V91.946V91.5412V85.2727H308.879V94H307.873ZM314.618 94.1193C314.055 94.1193 313.554 94.0227 313.114 93.8295C312.676 93.6364 312.328 93.3679 312.07 93.0241C311.814 92.6776 311.675 92.2756 311.652 91.8182H312.726C312.749 92.0994 312.845 92.3423 313.016 92.5469C313.186 92.7486 313.409 92.9048 313.685 93.0156C313.96 93.1264 314.266 93.1818 314.601 93.1818C314.976 93.1818 315.308 93.1165 315.598 92.9858C315.888 92.8551 316.115 92.6733 316.28 92.4403C316.445 92.2074 316.527 91.9375 316.527 91.6307C316.527 91.3097 316.447 91.027 316.288 90.7827C316.129 90.5355 315.896 90.3423 315.589 90.2031C315.283 90.0639 314.908 89.9943 314.464 89.9943H313.766V89.0568H314.464C314.811 89.0568 315.115 88.9943 315.376 88.8693C315.641 88.7443 315.847 88.5682 315.994 88.3409C316.145 88.1136 316.22 87.8466 316.22 87.5398C316.22 87.2443 316.155 86.9872 316.024 86.7685C315.893 86.5497 315.709 86.3793 315.47 86.2571C315.234 86.1349 314.956 86.0739 314.635 86.0739C314.334 86.0739 314.05 86.1293 313.783 86.2401C313.518 86.348 313.303 86.5057 313.135 86.7131C312.967 86.9176 312.876 87.1648 312.862 87.4545H311.839C311.857 86.9972 311.994 86.5966 312.253 86.2528C312.511 85.9062 312.849 85.6364 313.267 85.4432C313.688 85.25 314.149 85.1534 314.652 85.1534C315.192 85.1534 315.655 85.2628 316.041 85.4815C316.428 85.6974 316.724 85.983 316.932 86.3381C317.139 86.6932 317.243 87.0767 317.243 87.4886C317.243 87.9801 317.114 88.3991 316.855 88.7457C316.599 89.0923 316.251 89.3324 315.811 89.4659V89.5341C316.362 89.625 316.793 89.8594 317.102 90.2372C317.412 90.6122 317.567 91.0767 317.567 91.6307C317.567 92.1051 317.438 92.5312 317.179 92.9091C316.923 93.2841 316.574 93.5795 316.131 93.7955C315.688 94.0114 315.183 94.1193 314.618 94.1193ZM322.088 85.1534C322.446 85.1562 322.804 85.2244 323.162 85.358C323.52 85.4915 323.847 85.7131 324.142 86.0227C324.438 86.3295 324.675 86.7486 324.854 87.2798C325.033 87.8111 325.122 88.4773 325.122 89.2784C325.122 90.054 325.048 90.7429 324.901 91.3452C324.756 91.9446 324.545 92.4503 324.27 92.8622C323.997 93.2741 323.665 93.5866 323.273 93.7997C322.884 94.0128 322.443 94.1193 321.952 94.1193C321.463 94.1193 321.027 94.0227 320.643 93.8295C320.263 93.6335 319.95 93.3622 319.706 93.0156C319.464 92.6662 319.31 92.2614 319.241 91.8011H320.281C320.375 92.2017 320.561 92.5327 320.839 92.794C321.121 93.0526 321.491 93.1818 321.952 93.1818C322.625 93.1818 323.156 92.8878 323.545 92.2997C323.938 91.7116 324.134 90.8807 324.134 89.8068H324.065C323.906 90.0455 323.717 90.2514 323.499 90.4247C323.28 90.598 323.037 90.7315 322.77 90.8253C322.503 90.919 322.219 90.9659 321.918 90.9659C321.418 90.9659 320.959 90.8423 320.541 90.5952C320.126 90.3452 319.794 90.0028 319.544 89.5682C319.297 89.1307 319.173 88.6307 319.173 88.0682C319.173 87.5341 319.293 87.0455 319.531 86.6023C319.773 86.1562 320.111 85.8011 320.545 85.5369C320.983 85.2727 321.497 85.1449 322.088 85.1534ZM322.088 86.0909C321.73 86.0909 321.408 86.1804 321.121 86.3594C320.837 86.5355 320.611 86.7741 320.443 87.0753C320.278 87.3736 320.196 87.7045 320.196 88.0682C320.196 88.4318 320.276 88.7628 320.435 89.0611C320.597 89.3565 320.817 89.5923 321.095 89.7685C321.376 89.9418 321.696 90.0284 322.054 90.0284C322.324 90.0284 322.575 89.9759 322.808 89.8707C323.041 89.7628 323.244 89.6165 323.418 89.4318C323.594 89.2443 323.732 89.0327 323.831 88.7969C323.93 88.5582 323.98 88.3097 323.98 88.0511C323.98 87.7102 323.898 87.3906 323.733 87.0923C323.571 86.794 323.347 86.5526 323.06 86.3679C322.776 86.1832 322.452 86.0909 322.088 86.0909ZM326.836 94L330.74 86.2784V86.2102H326.24V85.2727H331.831V86.2614L327.944 94H326.836ZM336.169 94.1193C335.606 94.1193 335.105 94.0227 334.664 93.8295C334.227 93.6364 333.879 93.3679 333.62 93.0241C333.365 92.6776 333.225 92.2756 333.203 91.8182H334.277C334.299 92.0994 334.396 92.3423 334.566 92.5469C334.737 92.7486 334.96 92.9048 335.235 93.0156C335.511 93.1264 335.816 93.1818 336.152 93.1818C336.527 93.1818 336.859 93.1165 337.149 92.9858C337.439 92.8551 337.666 92.6733 337.831 92.4403C337.995 92.2074 338.078 91.9375 338.078 91.6307C338.078 91.3097 337.998 91.027 337.839 90.7827C337.68 90.5355 337.447 90.3423 337.14 90.2031C336.833 90.0639 336.458 89.9943 336.015 89.9943H335.316V89.0568H336.015C336.362 89.0568 336.666 88.9943 336.927 88.8693C337.191 88.7443 337.397 88.5682 337.545 88.3409C337.696 88.1136 337.771 87.8466 337.771 87.5398C337.771 87.2443 337.706 86.9872 337.575 86.7685C337.444 86.5497 337.26 86.3793 337.021 86.2571C336.785 86.1349 336.507 86.0739 336.186 86.0739C335.885 86.0739 335.6 86.1293 335.333 86.2401C335.069 86.348 334.853 86.5057 334.686 86.7131C334.518 86.9176 334.427 87.1648 334.413 87.4545H333.39C333.407 86.9972 333.545 86.5966 333.804 86.2528C334.062 85.9062 334.4 85.6364 334.818 85.4432C335.238 85.25 335.7 85.1534 336.203 85.1534C336.743 85.1534 337.206 85.2628 337.592 85.4815C337.978 85.6974 338.275 85.983 338.483 86.3381C338.69 86.6932 338.794 87.0767 338.794 87.4886C338.794 87.9801 338.664 88.3991 338.406 88.7457C338.15 89.0923 337.802 89.3324 337.362 89.4659V89.5341C337.913 89.625 338.343 89.8594 338.653 90.2372C338.963 90.6122 339.118 91.0767 339.118 91.6307C339.118 92.1051 338.988 92.5312 338.73 92.9091C338.474 93.2841 338.125 93.5795 337.681 93.7955C337.238 94.0114 336.734 94.1193 336.169 94.1193ZM341.341 94.0682C341.131 94.0682 340.95 93.9929 340.8 93.8423C340.649 93.6918 340.574 93.5114 340.574 93.3011C340.574 93.0909 340.649 92.9105 340.8 92.7599C340.95 92.6094 341.131 92.5341 341.341 92.5341C341.551 92.5341 341.732 92.6094 341.882 92.7599C342.033 92.9105 342.108 93.0909 342.108 93.3011C342.108 93.4403 342.072 93.5682 342.001 93.6847C341.933 93.8011 341.841 93.8949 341.724 93.9659C341.611 94.0341 341.483 94.0682 341.341 94.0682ZM344.646 94.0682C344.435 94.0682 344.255 93.9929 344.104 93.8423C343.954 93.6918 343.879 93.5114 343.879 93.3011C343.879 93.0909 343.954 92.9105 344.104 92.7599C344.255 92.6094 344.435 92.5341 344.646 92.5341C344.856 92.5341 345.036 92.6094 345.187 92.7599C345.337 92.9105 345.413 93.0909 345.413 93.3011C345.413 93.4403 345.377 93.5682 345.306 93.6847C345.238 93.8011 345.146 93.8949 345.029 93.9659C344.915 94.0341 344.788 94.0682 344.646 94.0682ZM347.95 94.0682C347.74 94.0682 347.56 93.9929 347.409 93.8423C347.259 93.6918 347.183 93.5114 347.183 93.3011C347.183 93.0909 347.259 92.9105 347.409 92.7599C347.56 92.6094 347.74 92.5341 347.95 92.5341C348.161 92.5341 348.341 92.6094 348.491 92.7599C348.642 92.9105 348.717 93.0909 348.717 93.3011C348.717 93.4403 348.682 93.5682 348.611 93.6847C348.543 93.8011 348.45 93.8949 348.334 93.9659C348.22 94.0341 348.092 94.0682 347.95 94.0682Z" fill="black"/>
<path d="M410.631 94.1193C410.131 94.1193 409.68 94.0199 409.28 93.821C408.879 93.6222 408.558 93.3494 408.317 93.0028C408.075 92.6562 407.943 92.2614 407.92 91.8182H408.943C408.983 92.2131 409.162 92.5398 409.48 92.7983C409.801 93.054 410.185 93.1818 410.631 93.1818C410.989 93.1818 411.307 93.098 411.585 92.9304C411.866 92.7628 412.087 92.5327 412.246 92.2401C412.408 91.9446 412.489 91.6108 412.489 91.2386C412.489 90.858 412.405 90.5185 412.237 90.2202C412.072 89.919 411.845 89.6818 411.555 89.5085C411.266 89.3352 410.935 89.2472 410.562 89.2443C410.295 89.2415 410.021 89.2827 409.74 89.3679C409.459 89.4503 409.227 89.5568 409.045 89.6875L408.057 89.5682L408.585 85.2727H413.119V86.2102H409.472L409.165 88.7841H409.216C409.395 88.642 409.619 88.5241 409.889 88.4304C410.159 88.3366 410.44 88.2898 410.733 88.2898C411.267 88.2898 411.743 88.4176 412.161 88.6733C412.581 88.9261 412.911 89.2727 413.149 89.7131C413.391 90.1534 413.511 90.6562 413.511 91.2216C413.511 91.7784 413.386 92.2756 413.136 92.7131C412.889 93.1477 412.548 93.4915 412.114 93.7443C411.679 93.9943 411.185 94.1193 410.631 94.1193ZM418 94.1193C417.414 94.1193 416.897 94.0156 416.449 93.8082C416.002 93.598 415.654 93.3097 415.404 92.9432C415.154 92.5739 415.031 92.1534 415.034 91.6818C415.031 91.3125 415.103 90.9716 415.251 90.6591C415.399 90.3437 415.6 90.081 415.856 89.8707C416.115 89.6577 416.403 89.5227 416.721 89.4659V89.4148C416.304 89.3068 415.971 89.0724 415.724 88.7116C415.477 88.348 415.355 87.9347 415.358 87.4716C415.355 87.0284 415.467 86.6321 415.694 86.2827C415.922 85.9332 416.234 85.6577 416.632 85.456C417.032 85.2543 417.488 85.1534 418 85.1534C418.505 85.1534 418.957 85.2543 419.355 85.456C419.752 85.6577 420.065 85.9332 420.292 86.2827C420.522 86.6321 420.639 87.0284 420.642 87.4716C420.639 87.9347 420.512 88.348 420.262 88.7116C420.015 89.0724 419.687 89.3068 419.278 89.4148V89.4659C419.593 89.5227 419.877 89.6577 420.13 89.8707C420.383 90.081 420.585 90.3437 420.735 90.6591C420.886 90.9716 420.963 91.3125 420.966 91.6818C420.963 92.1534 420.835 92.5739 420.582 92.9432C420.332 93.3097 419.984 93.598 419.538 93.8082C419.095 94.0156 418.582 94.1193 418 94.1193ZM418 93.1818C418.395 93.1818 418.735 93.1179 419.022 92.9901C419.309 92.8622 419.531 92.6818 419.687 92.4489C419.843 92.2159 419.923 91.9432 419.926 91.6307C419.923 91.3011 419.838 91.0099 419.67 90.7571C419.502 90.5043 419.274 90.3054 418.984 90.1605C418.697 90.0156 418.369 89.9432 418 89.9432C417.627 89.9432 417.295 90.0156 417.002 90.1605C416.713 90.3054 416.484 90.5043 416.316 90.7571C416.152 91.0099 416.071 91.3011 416.074 91.6307C416.071 91.9432 416.146 92.2159 416.299 92.4489C416.456 92.6818 416.679 92.8622 416.968 92.9901C417.258 93.1179 417.602 93.1818 418 93.1818ZM418 89.0398C418.312 89.0398 418.589 88.9773 418.831 88.8523C419.075 88.7273 419.267 88.5526 419.406 88.3281C419.545 88.1037 419.616 87.8409 419.619 87.5398C419.616 87.2443 419.547 86.9872 419.41 86.7685C419.274 86.5469 419.085 86.3764 418.843 86.2571C418.602 86.1349 418.321 86.0739 418 86.0739C417.673 86.0739 417.387 86.1349 417.143 86.2571C416.899 86.3764 416.71 86.5469 416.576 86.7685C416.443 86.9872 416.377 87.2443 416.38 87.5398C416.377 87.8409 416.444 88.1037 416.581 88.3281C416.72 88.5526 416.912 88.7273 417.156 88.8523C417.4 88.9773 417.681 89.0398 418 89.0398ZM422.599 94V93.233L425.479 90.0795C425.817 89.7102 426.096 89.3892 426.315 89.1165C426.533 88.8409 426.695 88.5824 426.8 88.3409C426.908 88.0966 426.962 87.8409 426.962 87.5739C426.962 87.267 426.888 87.0014 426.741 86.777C426.596 86.5526 426.397 86.3793 426.144 86.2571C425.891 86.1349 425.607 86.0739 425.292 86.0739C424.957 86.0739 424.664 86.1435 424.414 86.2827C424.167 86.419 423.975 86.6108 423.839 86.858C423.705 87.1051 423.638 87.3949 423.638 87.7273H422.633C422.633 87.2159 422.751 86.767 422.987 86.3807C423.222 85.9943 423.543 85.6932 423.95 85.4773C424.359 85.2614 424.817 85.1534 425.326 85.1534C425.837 85.1534 426.29 85.2614 426.685 85.4773C427.08 85.6932 427.39 85.9844 427.614 86.3509C427.839 86.7173 427.951 87.125 427.951 87.5739C427.951 87.8949 427.893 88.2088 427.776 88.5156C427.663 88.8196 427.464 89.1591 427.18 89.5341C426.898 89.9062 426.508 90.3608 426.008 90.8977L424.048 92.9943V93.0625H428.104V94H422.599ZM432.711 94.1193C432.069 94.1193 431.522 93.9446 431.07 93.5952C430.619 93.2429 430.273 92.733 430.035 92.0653C429.796 91.3949 429.677 90.5852 429.677 89.6364C429.677 88.6932 429.796 87.8878 430.035 87.2202C430.276 86.5497 430.623 86.0384 431.075 85.6861C431.529 85.331 432.075 85.1534 432.711 85.1534C433.347 85.1534 433.891 85.331 434.343 85.6861C434.798 86.0384 435.144 86.5497 435.383 87.2202C435.624 87.8878 435.745 88.6932 435.745 89.6364C435.745 90.5852 435.626 91.3949 435.387 92.0653C435.148 92.733 434.803 93.2429 434.352 93.5952C433.9 93.9446 433.353 94.1193 432.711 94.1193ZM432.711 93.1818C433.347 93.1818 433.842 92.875 434.194 92.2614C434.546 91.6477 434.722 90.7727 434.722 89.6364C434.722 88.8807 434.641 88.2372 434.479 87.706C434.32 87.1747 434.09 86.7699 433.789 86.4915C433.491 86.2131 433.131 86.0739 432.711 86.0739C432.08 86.0739 431.587 86.3849 431.232 87.0071C430.877 87.6264 430.7 88.5028 430.7 89.6364C430.7 90.392 430.779 91.0341 430.938 91.5625C431.097 92.0909 431.326 92.4929 431.624 92.7685C431.925 93.044 432.288 93.1818 432.711 93.1818ZM440.433 85.2727V94H439.376V86.3807H439.325L437.194 87.7955V86.7216L439.376 85.2727H440.433ZM445.789 94.1193C445.147 94.1193 444.6 93.9446 444.148 93.5952C443.697 93.2429 443.352 92.733 443.113 92.0653C442.874 91.3949 442.755 90.5852 442.755 89.6364C442.755 88.6932 442.874 87.8878 443.113 87.2202C443.354 86.5497 443.701 86.0384 444.153 85.6861C444.607 85.331 445.153 85.1534 445.789 85.1534C446.425 85.1534 446.969 85.331 447.421 85.6861C447.876 86.0384 448.222 86.5497 448.461 87.2202C448.702 87.8878 448.823 88.6932 448.823 89.6364C448.823 90.5852 448.704 91.3949 448.465 92.0653C448.227 92.733 447.881 93.2429 447.43 93.5952C446.978 93.9446 446.431 94.1193 445.789 94.1193ZM445.789 93.1818C446.425 93.1818 446.92 92.875 447.272 92.2614C447.624 91.6477 447.8 90.7727 447.8 89.6364C447.8 88.8807 447.719 88.2372 447.558 87.706C447.398 87.1747 447.168 86.7699 446.867 86.4915C446.569 86.2131 446.21 86.0739 445.789 86.0739C445.158 86.0739 444.665 86.3849 444.31 87.0071C443.955 87.6264 443.778 88.5028 443.778 89.6364C443.778 90.392 443.857 91.0341 444.016 91.5625C444.175 92.0909 444.404 92.4929 444.702 92.7685C445.004 93.044 445.366 93.1818 445.789 93.1818ZM453.511 85.2727V94H452.454V86.3807H452.403L450.272 87.7955V86.7216L452.454 85.2727H453.511ZM458.816 94.1193C458.231 94.1193 457.714 94.0156 457.265 93.8082C456.819 93.598 456.471 93.3097 456.221 92.9432C455.971 92.5739 455.847 92.1534 455.85 91.6818C455.847 91.3125 455.92 90.9716 456.067 90.6591C456.215 90.3437 456.417 90.081 456.673 89.8707C456.931 89.6577 457.219 89.5227 457.538 89.4659V89.4148C457.12 89.3068 456.788 89.0724 456.54 88.7116C456.293 88.348 456.171 87.9347 456.174 87.4716C456.171 87.0284 456.283 86.6321 456.511 86.2827C456.738 85.9332 457.05 85.6577 457.448 85.456C457.849 85.2543 458.305 85.1534 458.816 85.1534C459.322 85.1534 459.773 85.2543 460.171 85.456C460.569 85.6577 460.881 85.9332 461.109 86.2827C461.339 86.6321 461.455 87.0284 461.458 87.4716C461.455 87.9347 461.329 88.348 461.079 88.7116C460.832 89.0724 460.504 89.3068 460.094 89.4148V89.4659C460.41 89.5227 460.694 89.6577 460.947 89.8707C461.2 90.081 461.401 90.3437 461.552 90.6591C461.702 90.9716 461.779 91.3125 461.782 91.6818C461.779 92.1534 461.651 92.5739 461.398 92.9432C461.148 93.3097 460.8 93.598 460.354 93.8082C459.911 94.0156 459.398 94.1193 458.816 94.1193ZM458.816 93.1818C459.211 93.1818 459.552 93.1179 459.839 92.9901C460.126 92.8622 460.347 92.6818 460.504 92.4489C460.66 92.2159 460.739 91.9432 460.742 91.6307C460.739 91.3011 460.654 91.0099 460.487 90.7571C460.319 90.5043 460.09 90.3054 459.8 90.1605C459.513 90.0156 459.185 89.9432 458.816 89.9432C458.444 89.9432 458.112 90.0156 457.819 90.1605C457.529 90.3054 457.3 90.5043 457.133 90.7571C456.968 91.0099 456.887 91.3011 456.89 91.6307C456.887 91.9432 456.962 92.2159 457.116 92.4489C457.272 92.6818 457.495 92.8622 457.785 92.9901C458.075 93.1179 458.418 93.1818 458.816 93.1818ZM458.816 89.0398C459.129 89.0398 459.406 88.9773 459.647 88.8523C459.891 88.7273 460.083 88.5526 460.222 88.3281C460.362 88.1037 460.433 87.8409 460.435 87.5398C460.433 87.2443 460.363 86.9872 460.227 86.7685C460.09 86.5469 459.901 86.3764 459.66 86.2571C459.418 86.1349 459.137 86.0739 458.816 86.0739C458.489 86.0739 458.204 86.1349 457.96 86.2571C457.715 86.3764 457.526 86.5469 457.393 86.7685C457.259 86.9872 457.194 87.2443 457.197 87.5398C457.194 87.8409 457.261 88.1037 457.397 88.3281C457.536 88.5526 457.728 88.7273 457.972 88.8523C458.217 88.9773 458.498 89.0398 458.816 89.0398ZM463.896 94.0682C463.685 94.0682 463.505 93.9929 463.354 93.8423C463.204 93.6918 463.129 93.5114 463.129 93.3011C463.129 93.0909 463.204 92.9105 463.354 92.7599C463.505 92.6094 463.685 92.5341 463.896 92.5341C464.106 92.5341 464.286 92.6094 464.437 92.7599C464.587 92.9105 464.663 93.0909 464.663 93.3011C464.663 93.4403 464.627 93.5682 464.556 93.6847C464.488 93.8011 464.396 93.8949 464.279 93.9659C464.165 94.0341 464.038 94.0682 463.896 94.0682ZM467.2 94.0682C466.99 94.0682 466.81 93.9929 466.659 93.8423C466.509 93.6918 466.433 93.5114 466.433 93.3011C466.433 93.0909 466.509 92.9105 466.659 92.7599C466.81 92.6094 466.99 92.5341 467.2 92.5341C467.411 92.5341 467.591 92.6094 467.741 92.7599C467.892 92.9105 467.967 93.0909 467.967 93.3011C467.967 93.4403 467.932 93.5682 467.861 93.6847C467.793 93.8011 467.7 93.8949 467.584 93.9659C467.47 94.0341 467.342 94.0682 467.2 94.0682ZM470.505 94.0682C470.295 94.0682 470.114 93.9929 469.964 93.8423C469.813 93.6918 469.738 93.5114 469.738 93.3011C469.738 93.0909 469.813 92.9105 469.964 92.7599C470.114 92.6094 470.295 92.5341 470.505 92.5341C470.715 92.5341 470.896 92.6094 471.046 92.7599C471.197 92.9105 471.272 93.0909 471.272 93.3011C471.272 93.4403 471.237 93.5682 471.165 93.6847C471.097 93.8011 471.005 93.8949 470.888 93.9659C470.775 94.0341 470.647 94.0682 470.505 94.0682Z" fill="black"/>
<line x1="49.5" y1="121" x2="49.5" y2="99" stroke="black"/>
<line x1="439.5" y1="121" x2="439.5" y2="99" stroke="black"/>
<line x1="314.5" y1="121" x2="314.5" y2="99" stroke="black"/>
<line x1="161.5" y1="121" x2="161.5" y2="99" stroke="black"/>
<line x1="49.8535" y1="78.5219" x2="111.854" y2="59.5219" stroke="black"/>
<line x1="314.853" y1="78.5219" x2="376.853" y2="59.5219" stroke="black"/>
<line x1="112.144" y1="59.5213" x2="175.144" y2="78.5213" stroke="black"/>
<line x1="376.144" y1="59.5213" x2="439.144" y2="78.5213" stroke="black"/>
<line x1="245.071" y1="19.5051" x2="377.071" y2="38.5051" stroke="black"/>
<line x1="111.929" y1="38.505" x2="244.929" y2="19.505" stroke="black"/>
</svg>
